<svg width="44" height="44" viewBox="0 0 44 44" fill="none" xmlns="http://www.w3.org/2000/svg">
<path fill-rule="evenodd" clip-rule="evenodd" d="M22 44C34.1503 44 44 34.1503 44 22C44 9.84974 34.1503 0 22 0C9.84974 0 0 9.84974 0 22C0 34.1503 9.84974 44 22 44Z" fill="#87E6FF"/>
<path fill-rule="evenodd" clip-rule="evenodd" d="M30.932 22.294C30.893 22.397 30.836 22.495 30.752 22.579L24.528 28.752C24.216 29.064 23.709 29.064 23.397 28.752C23.084 28.443 23.084 27.941 23.397 27.631L28.317 22.75H13.766C13.343 22.75 13 22.407 13 21.984C13 21.561 13.343 21.218 13.766 21.218H28.312L23.397 16.342C23.084 16.032 23.084 15.53 23.397 15.22C23.709 14.91 24.216 14.91 24.528 15.22L30.752 21.394C30.834 21.475 30.892 21.571 30.931 21.673C30.974 21.768 31 21.872 31 21.984C31 22.095 30.974 22.199 30.932 22.294Z" fill="white"/>
</svg>
