<svg width="44" height="44" viewBox="0 0 44 44" fill="none" xmlns="http://www.w3.org/2000/svg">
<path fill-rule="evenodd" clip-rule="evenodd" d="M43.9462 21.9731C43.9462 34.0888 34.0888 43.9462 21.9731 43.9462C9.85743 43.9462 0 34.0888 0 21.9731C0 9.85743 9.85743 0 21.9731 0C34.0888 0 43.9462 9.85743 43.9462 21.9731Z" fill="#FB6EA4"/>
<path d="M12.4293 23.0754H28.8644L24.5629 27.3768C24.1328 27.807 24.1328 28.497 24.5629 28.9272C24.778 29.1422 25.0558 29.2498 25.3426 29.2498C25.6293 29.2498 25.9071 29.1422 26.1222 28.9272L32.2965 22.7528C32.7267 22.3227 32.7267 21.6327 32.2965 21.2025L26.1222 15.0282C25.6921 14.598 25.002 14.598 24.5719 15.0282C24.1418 15.4583 24.1418 16.1483 24.5719 16.5785L28.8733 20.8799H12.4293C11.82 20.8799 11.3271 21.3728 11.3271 21.9821C11.3271 22.5915 11.82 23.0754 12.4293 23.0754Z" fill="white"/>
</svg>
