<svg width="24" height="24" viewBox="0 0 24 24" fill="none" xmlns="http://www.w3.org/2000/svg">
<path fill-rule="evenodd" clip-rule="evenodd" d="M4.5 0H19.5C21.9858 0 24 2.01415 24 4.5V19.5C24 21.9858 21.9858 24 19.5 24H4.5C2.01415 24 0 21.9858 0 19.5V4.5C0 2.01415 2.01415 0 4.5 0ZM16.644 12.9249H18.8898L19.1954 10.1243H16.644L16.6486 8.55231C16.6486 7.80462 16.7188 7.40492 17.7914 7.40492H19.4132V4.61538H16.6209C13.8655 4.61538 12.8945 6.00369 12.8935 8.34185V10.1252H11.4388V12.9249H12.8935V21.2363H16.644V12.9249Z" fill="white"/>
</svg>
