<svg width="24" height="24" viewBox="0 0 24 24" fill="none" xmlns="http://www.w3.org/2000/svg">
<path fill-rule="evenodd" clip-rule="evenodd" d="M3.51562 0H20.4844C22.4227 0 24 1.57727 24 3.51562V20.4844C24 22.4227 22.4227 24 20.4844 24H3.51562C1.57727 24 0 22.4227 0 20.4844V3.51562C0 1.57727 1.57727 0 3.51562 0ZM5.67188 19.0312H8.48438V9.1875H5.67188V19.0312ZM8.48438 7.78125H5.67188V4.96875H8.48438V7.78125ZM15.5156 19.0312H18.3281V12.9229C18.3281 10.9006 16.7199 9.18951 14.8125 9.1875C14.1595 9.1875 13.7281 9.34814 13.2557 9.52402C13.0815 9.5889 12.9017 9.65586 12.7031 9.71759V9.1875H9.89062V19.0312H12.7031V13.4062C12.7031 12.631 13.3341 12 14.1094 12C14.8846 12 15.5156 12.631 15.5156 13.4062V19.0312Z" fill="white"/>
</svg>
