<svg width="44" height="44" viewBox="0 0 44 44" fill="none" xmlns="http://www.w3.org/2000/svg">
<path fill-rule="evenodd" clip-rule="evenodd" d="M22 44C34.1503 44 44 34.1503 44 22C44 9.84974 34.1503 0 22 0C9.84974 0 0 9.84974 0 22C0 34.1503 9.84974 44 22 44Z" fill="#87E6FF"/>
<path d="M14.0728 13.9995H29.9272C31.3576 14.0355 31.3576 11.9645 29.9272 12.0005H14.0728C12.6424 11.9644 12.6424 14.0355 14.0728 13.9995Z" fill="white"/>
<path d="M29.9272 20.0005H14.0728C12.6424 19.9645 12.6424 22.0355 14.0728 21.9995H29.9272C31.3576 22.0355 31.3576 19.9645 29.9272 20.0005Z" fill="white"/>
<path d="M29.9272 28H14.0728C12.6424 28 12.6424 30 14.0728 30H29.9272C31.3576 30 31.3576 28 29.9272 28Z" fill="white"/>
</svg>
