<svg width="367" height="372" viewBox="0 0 367 372" fill="none" xmlns="http://www.w3.org/2000/svg">
<rect width="367" height="372" fill="white"/>
<path d="M299.742 180.909L190.314 119L119 166.612L222.405 225.114C224.494 226.295 227.067 226.295 229.156 225.114L299.743 185.179C301.419 184.23 301.419 181.857 299.742 180.909Z" fill="#EFEFEF"/>
<path d="M220.876 115.539C220.88 110.762 217.531 108.815 213.411 111.2L143.377 151.748C142.245 152.404 141.326 154.001 141.324 155.315C141.323 156.628 142.24 157.162 143.373 156.506L213.407 115.958C215.265 114.882 216.775 115.76 216.773 117.915L216.766 125.785C218.125 125.7 219.489 125.699 220.866 125.723L220.876 115.539Z" fill="#FF2C9C"/>
<path d="M143.347 170.658L213.381 145.013C217.501 142.628 220.857 136.799 220.861 132.021L220.867 125.723C219.489 125.699 218.125 125.7 216.767 125.785L216.759 134.396C216.758 136.551 215.244 139.179 213.386 140.255L143.352 165.9C142.22 166.556 141.3 168.152 141.299 169.467C141.297 170.78 142.214 171.314 143.347 170.658Z" fill="#D3008D"/>
<path d="M141.828 170.753L227.021 220.29L299.15 177.064L304.873 168.482L304.279 171.523L302.741 163.562L168.852 168.694L145.262 167.166L141.828 170.753Z" fill="#D3008D"/>
<path d="M144.654 155.803L144.631 166.342L226.969 214.211L229.194 204.168L144.654 155.803Z" fill="#E573B5"/>
<path d="M303.811 160.173L218.754 110.723L142.065 155.538L141.907 156.639L227.09 206.162L303.811 160.173Z" fill="#FF2C9C"/>
<path d="M276.695 185.568L296.694 173.647C298.379 172.457 299.7 170.052 299.702 168.043L299.717 166.464C299.717 165.187 299.186 164.364 298.367 164.124L258.999 186.132L226.939 203.556L226.968 214.211L276.695 185.568Z" fill="white"/>
<path d="M229.814 204.529L145.297 155.392L143.505 154.351L141.868 153.399C141.533 154.016 141.324 154.696 141.323 155.315C141.322 155.961 141.546 156.415 141.905 156.635L141.906 156.639L141.919 156.647L141.926 156.65L227.089 206.161L229.814 204.529Z" fill="#D3008D"/>
<path d="M225.959 219.673L227.021 220.29L227.218 219.951L226.556 219.427L225.959 219.673Z" fill="white"/>
<path d="M225.987 205.519L227.075 206.151L226.803 205.555L225.987 205.519Z" fill="white"/>
<path d="M228.56 201.271L298.593 160.723C302.714 158.338 306.062 160.285 306.057 165.063L306.043 166.642C306.038 171.42 302.683 177.248 298.563 179.633L228.529 220.181C227.397 220.837 226.479 220.303 226.48 218.99C226.48 217.676 227.401 216.079 228.533 215.423L298.567 174.876C300.426 173.799 301.938 171.171 301.94 169.016L301.955 167.437C301.956 165.282 300.446 164.404 298.588 165.481L228.555 206.028C227.422 206.684 226.504 206.151 226.505 204.837C226.508 203.524 227.427 201.927 228.56 201.271Z" fill="#FF2C9C"/>
<path d="M197.369 161.96L233.761 140.889L265.324 159.239L228.931 180.309L197.369 161.96Z" fill="white"/>
<path d="M226.48 218.99C226.481 217.676 227.402 216.079 228.534 215.423L298.568 174.876C300.427 173.799 301.939 171.172 301.941 169.016L301.956 167.437C301.957 166.027 301.308 165.168 300.34 165.042C300.652 165.454 300.834 166.041 300.833 166.785L300.818 168.364C300.817 170.519 299.303 173.147 297.445 174.223L227.411 214.771C226.278 215.427 225.359 217.024 225.357 218.337C225.356 219.333 225.884 219.877 226.632 219.798C226.536 219.578 226.48 219.308 226.48 218.99Z" fill="white"/>
<path d="M226.506 204.838C226.508 203.524 227.427 201.927 228.56 201.272L298.593 160.724C300.368 159.697 301.997 159.477 303.279 159.937C301.91 158.763 299.817 158.713 297.471 160.072L227.437 200.619C226.305 201.275 225.385 202.873 225.384 204.186C225.383 205.182 225.911 205.726 226.659 205.647C226.562 205.426 226.506 205.156 226.506 204.838Z" fill="white"/>
<path d="M216.549 85.7575C216.553 81.0153 213.197 79.0829 209.069 81.4507L138.893 121.696C137.759 122.347 136.837 123.932 136.836 125.236C136.835 126.54 137.754 127.069 138.889 126.418L209.065 86.1731C210.927 85.1049 212.44 85.9765 212.438 88.1154L212.431 95.9268C213.793 95.8425 215.159 95.8409 216.539 95.8649L216.549 85.7575Z" fill="#D4ECFF"/>
<path d="M138.863 140.465L209.039 115.011C213.168 112.643 216.53 106.859 216.534 102.116L216.54 95.8649C215.16 95.8409 213.793 95.8426 212.431 95.9268L212.424 104.474C212.422 106.612 210.906 109.221 209.044 110.289L138.868 135.742C137.734 136.393 136.813 137.979 136.811 139.282C136.809 140.586 137.729 141.116 138.863 140.465Z" fill="#5793CE"/>
<path d="M137.342 140.559L222.708 189.726L294.982 146.823L300.717 138.305L300.122 141.323L298.58 133.422L164.42 138.515L140.782 136.999L137.342 140.559Z" fill="#5793CE"/>
<path d="M140.173 125.721L140.15 136.18L222.655 183.693L224.884 173.724L140.173 125.721Z" fill="#86B8E0"/>
<path d="M299.653 130.058L214.423 80.9765L137.579 125.457L137.421 126.55L222.776 175.704L299.653 130.058Z" fill="#D4ECFF"/>
<path d="M272.482 155.264L292.521 143.431C294.21 142.251 295.533 139.864 295.535 137.869L295.55 136.302C295.551 135.034 295.018 134.217 294.198 133.979L254.75 155.823L222.625 173.117L222.654 183.693L272.482 155.264Z" fill="white"/>
<path d="M225.506 174.083L140.817 125.313L139.022 124.279L137.382 123.335C137.047 123.947 136.837 124.622 136.836 125.236C136.835 125.877 137.059 126.328 137.419 126.546L137.42 126.55L137.433 126.558L137.44 126.561L222.776 175.704L225.506 174.083Z" fill="#5793CE"/>
<path d="M221.644 189.113L222.708 189.726L222.904 189.389L222.241 188.87L221.644 189.113Z" fill="white"/>
<path d="M221.671 175.065L222.762 175.693L222.488 175.101L221.671 175.065Z" fill="white"/>
<path d="M224.249 170.849L294.425 130.604C298.553 128.237 301.909 130.169 301.904 134.911L301.889 136.478C301.885 141.221 298.522 147.005 294.394 149.373L224.218 189.618C223.084 190.269 222.164 189.74 222.165 188.436C222.166 187.132 223.088 185.547 224.222 184.896L294.398 144.651C296.26 143.583 297.776 140.974 297.778 138.835L297.793 137.268C297.794 135.129 296.281 134.258 294.42 135.326L224.244 175.571C223.109 176.222 222.19 175.692 222.191 174.389C222.192 173.086 223.113 171.5 224.249 170.849Z" fill="#D4ECFF"/>
<path d="M192.994 131.83L229.461 110.918L261.088 129.131L224.621 150.043L192.994 131.83Z" fill="white"/>
<path d="M222.166 188.436C222.166 187.132 223.089 185.547 224.223 184.896L294.399 144.651C296.261 143.583 297.777 140.974 297.779 138.835L297.794 137.268C297.794 135.868 297.145 135.015 296.174 134.891C296.486 135.299 296.67 135.882 296.669 136.62L296.654 138.188C296.652 140.327 295.136 142.935 293.274 144.003L223.099 184.248C221.964 184.899 221.043 186.484 221.041 187.788C221.04 188.776 221.569 189.317 222.318 189.238C222.221 189.019 222.165 188.752 222.166 188.436Z" fill="white"/>
<path d="M222.191 174.39C222.193 173.086 223.114 171.5 224.249 170.849L294.425 130.604C296.202 129.585 297.835 129.367 299.12 129.823C297.748 128.658 295.651 128.608 293.301 129.957L223.125 170.202C221.99 170.853 221.068 172.438 221.068 173.742C221.067 174.73 221.595 175.27 222.345 175.192C222.247 174.973 222.191 174.705 222.191 174.39Z" fill="white"/>
<path d="M150.61 266.403L93.3931 233.969C87.8349 230.819 88.5324 225.316 94.9496 221.678C101.367 218.04 111.075 217.645 116.633 220.795L173.85 253.229C179.407 256.379 178.711 261.882 172.293 265.519C165.875 269.158 156.168 269.553 150.61 266.403Z" fill="#EFEFEF"/>
<path d="M187.887 242.338L130.67 209.905C125.111 206.754 125.809 201.252 132.226 197.613C138.643 193.976 148.351 193.581 153.909 196.731L211.126 229.165C216.684 232.315 215.987 237.817 209.57 241.455C203.152 245.093 193.444 245.488 187.887 242.338Z" fill="#EFEFEF"/>
<path d="M125.979 197.202C122.161 199.367 122.161 202.888 125.979 205.052L190.875 241.838C191.925 242.434 193.627 242.434 194.677 241.838C195.726 241.243 195.726 240.279 194.677 239.683L129.78 202.897C128.058 201.921 128.058 200.333 129.78 199.357L136.069 195.792C135.37 194.76 134.735 193.686 134.116 192.59L125.979 197.202Z" fill="#D4ECFF"/>
<path d="M217.893 226.524L152.996 189.737C149.178 187.573 142.966 187.573 139.148 189.737L134.116 192.59C134.736 193.686 135.37 194.759 136.069 195.792L142.949 191.892C144.672 190.916 147.473 190.916 149.195 191.892L214.092 228.679C215.141 229.274 216.844 229.274 217.893 228.679C218.942 228.084 218.942 227.119 217.893 226.524Z" fill="#5793CE"/>
<path d="M218.673 227.678L218.68 138.083L150.671 100.861L141.16 100.245L131.964 106.094L126.32 110.917L192.581 214.081L214.215 226.599L218.673 227.678Z" fill="#5793CE"/>
<path d="M193.522 238.993L213.849 227.47V140.882L192.894 150.446L193.522 238.993Z" fill="#79B1E0"/>
<path d="M123.117 111.61V201.059L194.511 241.153L195.464 240.778V151.198L123.117 111.61Z" fill="#D4ECFF"/>
<path d="M163.271 112.351L149.082 104.347C147.35 103.559 144.816 103.609 143.211 104.52L130.041 111.985C129.021 112.563 128.611 113.356 128.799 114.109L164.653 135.144L193.452 152.499L213.85 140.883L163.271 112.351Z" fill="white"/>
<path d="M192.894 149.792V238.673V240.558V242.278C193.542 242.262 194.182 242.119 194.677 241.838C195.192 241.546 195.452 241.164 195.46 240.781L195.463 240.778V240.764V240.758V151.198L192.894 149.792Z" fill="#5793CE"/>
<path d="M218.68 139.2V138.083H218.316L218.206 138.842L218.68 139.2Z" fill="white"/>
<path d="M195.462 152.359V151.214L195.112 151.7L195.462 152.359Z" fill="white"/>
<path d="M190.875 152.258L125.979 115.472C122.161 113.308 122.161 109.787 125.979 107.622L139.148 100.157C142.966 97.9933 149.178 97.9933 152.996 100.157L217.893 136.944C218.942 137.539 218.942 138.504 217.893 139.099C216.844 139.694 215.141 139.694 214.092 139.099L149.195 102.312C147.473 101.336 144.672 101.336 142.949 102.312L129.78 109.777C128.058 110.754 128.058 112.342 129.78 113.318L194.677 150.104C195.726 150.7 195.726 151.664 194.677 152.259C193.627 152.854 191.926 152.854 190.875 152.258Z" fill="#D4ECFF"/>
<path d="M173.962 194.666L140.24 175.551V142.359L173.962 161.475V194.666Z" fill="white"/>
<path d="M217.893 139.099C216.844 139.694 215.141 139.694 214.092 139.099L149.195 102.312C147.473 101.336 144.672 101.336 142.949 102.312L129.78 109.777C128.653 110.417 128.268 111.317 128.618 112.137C128.802 111.705 129.186 111.294 129.78 110.958L142.949 103.493C144.672 102.517 147.473 102.517 149.195 103.493L214.092 140.279C215.141 140.875 216.844 140.875 217.893 140.279C218.688 139.829 218.878 139.166 218.468 138.612C218.336 138.788 218.146 138.955 217.893 139.099Z" fill="white"/>
<path d="M194.677 152.259C193.628 152.854 191.925 152.854 190.875 152.259L125.979 115.473C124.334 114.54 123.403 113.357 123.175 112.138C122.873 113.749 123.806 115.421 125.979 116.653L190.875 153.44C191.925 154.035 193.628 154.035 194.677 153.44C195.472 152.989 195.662 152.327 195.252 151.772C195.121 151.948 194.931 152.115 194.677 152.259Z" fill="white"/>
<path d="M88.2982 220.15C84.48 222.314 84.4809 225.835 88.2982 227.999L153.195 264.786C154.244 265.381 155.947 265.381 156.996 264.786C158.045 264.19 158.045 263.226 156.996 262.631L92.0995 225.844C90.3773 224.868 90.3773 223.28 92.0995 222.304L98.3882 218.739C97.6898 217.707 97.0549 216.633 96.4351 215.537L88.2982 220.15Z" fill="#FF2C9C"/>
<path d="M180.211 249.471L115.315 212.685C111.497 210.52 105.285 210.52 101.467 212.685L96.4343 215.537C97.0549 216.633 97.689 217.707 98.3874 218.739L105.268 214.839C106.99 213.863 109.791 213.863 111.513 214.839L176.41 251.626C177.459 252.221 179.162 252.221 180.211 251.626C181.261 251.031 181.261 250.066 180.211 249.471Z" fill="#D3008D"/>
<path d="M180.992 250.625L180.999 161.03L112.991 123.809L103.48 123.193L94.2825 129.041L88.6389 133.864L154.9 237.028L176.534 249.547L180.992 250.625Z" fill="#D3008D"/>
<path d="M155.84 261.94L176.168 250.418V163.829L155.214 173.393L155.84 261.94Z" fill="#E573B5"/>
<path d="M85.4363 134.557V224.006L156.83 264.1L157.782 263.726V174.146L85.4363 134.557Z" fill="#FF2C9C"/>
<path d="M125.591 135.298L111.402 127.294C109.669 126.506 107.136 126.556 105.53 127.467L92.3608 134.932C91.3403 135.51 90.9302 136.303 91.1188 137.056L126.972 158.091L155.772 175.446L176.169 163.83L125.591 135.298Z" fill="white"/>
<path d="M155.214 172.74V261.62V263.505V265.226C155.862 265.209 156.502 265.066 156.996 264.786C157.512 264.493 157.771 264.112 157.78 263.728L157.782 263.726V263.712V263.706V174.147L155.214 172.74Z" fill="#D3008D"/>
<path d="M180.999 162.147V161.03H180.636L180.525 161.789L180.999 162.147Z" fill="white"/>
<path d="M157.781 175.306V174.161L157.431 174.648L157.781 175.306Z" fill="white"/>
<path d="M153.195 175.206L88.2982 138.419C84.48 136.255 84.48 132.734 88.2982 130.57L101.467 123.105C105.286 120.941 111.497 120.941 115.316 123.105L180.212 159.891C181.261 160.486 181.261 161.451 180.212 162.046C179.163 162.641 177.46 162.641 176.411 162.046L111.514 125.26C109.792 124.283 106.991 124.283 105.269 125.26L92.0995 132.725C90.3773 133.701 90.3773 135.289 92.0995 136.265L156.996 173.052C158.045 173.647 158.045 174.611 156.996 175.206C155.947 175.801 154.244 175.801 153.195 175.206Z" fill="#FF2C9C"/>
<path d="M136.282 217.614L102.559 198.498V165.306L136.282 184.422V217.614Z" fill="white"/>
<path d="M180.211 162.047C179.162 162.642 177.459 162.642 176.41 162.047L111.513 125.26C109.791 124.284 106.99 124.284 105.268 125.26L92.0987 132.725C90.9708 133.364 90.5869 134.264 90.9361 135.085C91.1204 134.652 91.5043 134.241 92.0987 133.904L105.268 126.439C106.99 125.463 109.791 125.463 111.513 126.439L176.41 163.226C177.459 163.821 179.162 163.821 180.211 163.226C181.007 162.775 181.196 162.112 180.786 161.558C180.655 161.737 180.466 161.903 180.211 162.047Z" fill="white"/>
<path d="M156.996 175.207C155.947 175.801 154.244 175.801 153.195 175.207L88.2982 138.42C86.6538 137.488 85.722 136.304 85.4938 135.085C85.1928 136.697 86.1245 138.368 88.2982 139.6L153.195 176.387C154.244 176.982 155.947 176.982 156.996 176.387C157.792 175.936 157.981 175.274 157.571 174.719C157.44 174.896 157.251 175.062 156.996 175.207Z" fill="white"/>
<path d="M146.546 294.114L61.0873 245.651C59.2398 244.603 59.4708 242.773 61.6053 241.562C63.7389 240.352 66.9668 240.221 68.8152 241.269L154.274 289.733C156.122 290.781 155.891 292.611 153.756 293.821C151.622 295.031 148.395 295.162 146.546 294.114Z" fill="#EFEFEF"/>
<path d="M54.8591 230.864C54.9225 230.756 55.0485 230.7 55.1727 230.726L59.2306 231.549L57.6625 234.23L54.895 231.201C54.8107 231.108 54.7957 230.972 54.8591 230.864Z" fill="#D4ECFF"/>
<path d="M56.4756 232.814C56.4739 232.24 56.8826 231.542 57.3881 231.253C57.6216 231.12 57.8327 231.103 57.9953 231.174C62.6737 231.091 67.288 232.256 71.3458 234.546L71.6394 234.712L66.6949 243.165L65.2002 242.212C62.0365 240.195 59.3599 237.523 57.3581 234.382L56.7116 233.369C56.5673 233.268 56.4764 233.08 56.4756 232.814Z" fill="#5793CE"/>
<path d="M65.6623 240.937C65.6573 238.738 67.2229 236.062 69.1588 234.959C71.0948 233.856 72.6679 234.744 72.672 236.942C72.677 239.14 71.1114 241.816 69.1755 242.919C67.2404 244.023 65.6673 243.135 65.6623 240.937Z" fill="#D4ECFF"/>
<path d="M105.968 266.351L66.6958 243.166L71.6403 234.712L111.811 256.362L105.968 266.351Z" fill="#D4ECFF"/>
<path d="M104.748 263.717C104.742 261.119 106.592 257.957 108.879 256.654C111.166 255.35 113.026 256.399 113.031 258.997C113.037 261.594 111.187 264.756 108.899 266.06C106.612 267.363 104.753 266.314 104.748 263.717Z" fill="#D4ECFF"/>
<path d="M106.46 264.683C106.455 262.086 108.305 258.924 110.593 257.62C112.88 256.317 114.739 257.365 114.744 259.963C114.75 262.561 112.9 265.723 110.613 267.026C108.325 268.33 106.466 267.28 106.46 264.683Z" fill="#D4ECFF"/>
<path d="M107.691 267.312L113.534 257.324L153.257 279.741L147.414 289.73L107.691 267.312Z" fill="#D4ECFF"/>
<path d="M146.182 287.1C146.176 284.503 148.026 281.341 150.313 280.037C152.6 278.734 154.459 279.783 154.465 282.38C154.471 284.978 152.621 288.14 150.334 289.443C148.046 290.747 146.188 289.698 146.182 287.1Z" fill="#D4ECFF"/>
<path d="M147.664 286.256C147.74 284.722 148.991 282.8 150.46 281.963C151.929 281.126 153.058 281.691 152.982 283.224C152.907 284.758 151.655 286.68 150.186 287.517C148.718 288.355 147.589 287.79 147.664 286.256Z" fill="#396CAA"/>
<path d="M104.446 263.546C104.44 260.949 106.29 257.787 108.577 256.483C110.864 255.18 112.724 256.228 112.729 258.826C112.735 261.423 110.885 264.586 108.597 265.889C106.31 267.193 104.451 266.144 104.446 263.546Z" fill="#5793CE"/>
<path d="M104.446 263.546C104.44 260.949 106.29 257.787 108.578 256.483C109.5 255.958 110.348 255.82 111.038 256.006C110.284 255.247 109.058 255.169 107.671 255.958C105.384 257.261 103.534 260.424 103.539 263.021C103.543 264.572 104.21 265.566 105.232 265.841C104.74 265.348 104.448 264.569 104.446 263.546Z" fill="white"/>
<path d="M105.677 266.177L111.52 256.188L113.771 257.458L107.928 267.447L105.677 266.177Z" fill="#5793CE"/>
<path d="M106.696 264.817C106.691 262.22 108.541 259.057 110.828 257.754C113.115 256.45 114.974 257.499 114.98 260.097C114.986 262.694 113.136 265.856 110.848 267.16C108.561 268.463 106.702 267.414 106.696 264.817Z" fill="#D4ECFF"/>
<path d="M149.535 287.39L152.055 283.081L160.475 287.833C161.687 288.517 162.104 290.036 161.408 291.225C160.712 292.416 159.165 292.825 157.954 292.142L149.535 287.39Z" fill="#FF2C9C"/>
<path d="M149.008 286.254C149.006 285.133 149.804 283.769 150.791 283.206C151.778 282.644 152.58 283.097 152.582 284.217C152.584 285.338 151.786 286.702 150.799 287.265C149.812 287.828 149.011 287.375 149.008 286.254Z" fill="#FF2C9C"/>
<path d="M139.552 271.219L140.8 270.508C141.517 270.1 142.472 270.191 143.488 270.765L147.815 273.206C148.631 273.667 149.298 274.795 149.3 275.72L149.304 277.834C149.305 278.189 149.486 278.595 149.747 278.892L149.596 279.873L150.662 279.26L150.66 279.258C150.814 279.18 150.911 279.001 150.911 278.741L150.907 276.627C150.903 274.697 149.514 272.346 147.811 271.385L143.485 268.944C142.04 268.128 140.682 267.999 139.662 268.58L138.414 269.292C137.697 269.7 136.742 269.609 135.725 269.035L118.285 259.193C118.06 259.066 117.857 259.057 117.712 259.144V259.142L116.647 259.755L117.567 260.093C117.698 260.47 117.971 260.835 118.289 261.015L135.728 270.857C137.175 271.672 138.533 271.8 139.552 271.219Z" fill="#5793CE"/>
<path d="M139.721 271.129C140.438 270.721 141.392 270.812 142.409 271.386L146.736 273.827C147.552 274.288 148.219 275.416 148.22 276.341L148.224 278.455C148.225 278.958 148.586 279.569 149.03 279.819C149.474 280.07 149.833 279.865 149.832 279.362L149.827 277.248C149.823 275.318 148.435 272.968 146.732 272.007L142.406 269.565C140.96 268.749 139.602 268.621 138.582 269.202L137.334 269.913C136.618 270.321 135.663 270.231 134.646 269.656L117.206 259.814C116.762 259.564 116.404 259.768 116.404 260.271C116.405 260.774 116.766 261.385 117.21 261.636L134.649 271.478C136.095 272.294 137.453 272.423 138.473 271.842L139.721 271.129Z" fill="#5793CE"/>
<path d="M156.442 297.573L148.468 293.051C147.506 292.505 147.627 291.553 148.737 290.923C149.848 290.293 151.527 290.225 152.489 290.771L160.463 295.293C161.425 295.839 161.304 296.791 160.194 297.421C159.083 298.05 157.404 298.119 156.442 297.573Z" fill="#EFEFEF"/>
<path d="M203.767 292.691L189.597 284.932L234.184 260.519L248.354 268.278L203.767 292.691Z" fill="#EFEFEF"/>
<path d="M238.904 266.163L236.466 264.828L254.664 254.726L257.102 256.061L238.904 266.163Z" fill="#EFEFEF"/>
<path d="M193.751 293.05C195.76 293.05 197.389 291.506 197.389 289.601C197.389 287.696 195.76 286.151 193.751 286.151C191.743 286.151 190.114 287.696 190.114 289.601C190.114 291.506 191.743 293.05 193.751 293.05Z" fill="#EFEFEF"/>
<path opacity="0.5" d="M295.367 220.944C283.514 214.455 264.295 214.454 252.443 220.944C247.528 223.635 244.658 227.019 243.819 230.521C244.559 233.61 246.885 236.606 250.794 239.117C251.771 238.36 252.867 237.635 254.106 236.957C265.96 230.467 285.177 230.467 297.031 236.958C297.615 237.277 298.161 237.61 298.687 237.949C301.597 235.7 303.364 233.145 303.993 230.523C303.152 227.02 300.281 223.635 295.367 220.944Z" fill="#D4ECFF"/>
<path d="M303.799 231.135C302.784 234.417 299.994 237.567 295.368 240.099C283.515 246.589 264.297 246.589 252.443 240.099C249.503 238.489 247.31 236.628 245.831 234.645C237.498 242.32 239.359 252.391 251.419 258.994C265.682 266.803 288.806 266.803 303.069 258.995C317.079 251.323 317.315 238.972 303.799 231.135Z" fill="#EFEFEF"/>
<path d="M243.098 235.703L247.73 229.977L261.791 223.781L273.905 222.761L288.092 224.408L297.935 229.232L304.221 233.037L305.352 226.84L303.229 219.702C303.229 219.702 297.853 216.33 297.521 216.016C297.19 215.701 284.95 211.545 284.95 211.545L272.709 210.761L262.866 211.937L252.858 214.761L246.242 219.153L241.279 225.115L240.721 232.566L243.098 235.703Z" fill="#D3008D"/>
<path d="M308.75 228.348V240.409L305.351 235.18L308.75 228.348Z" fill="#D3008D"/>
<path d="M252.442 228.975C264.295 222.485 283.513 222.485 295.366 228.975C299.095 231.016 301.648 233.457 303.031 236.046C304.076 235.159 305.42 234.463 305.979 233.269C304.28 231.078 301.808 229.022 298.544 227.236C284.936 219.785 262.873 219.785 249.265 227.235C246.286 228.865 243.96 230.718 242.286 232.695C242.834 233.911 243.665 235.085 244.773 236.055C246.154 233.463 248.709 231.019 252.442 228.975Z" fill="#D3008D"/>
<path opacity="0.5" d="M295.367 220.944C283.514 214.455 264.295 214.454 252.443 220.944C247.528 223.635 244.658 227.019 243.819 230.521C244.658 234.024 247.528 237.408 252.443 240.099C264.296 246.589 283.514 246.59 295.367 240.099C300.281 237.408 303.152 234.024 303.99 230.522C303.152 227.02 300.281 223.635 295.367 220.944Z" fill="#D4ECFF"/>
<path d="M305.979 233.269C305.742 233.777 305.358 234.192 304.92 234.573L304.909 234.447L301.766 236.226L297.907 239.625L292.558 241.873L285.17 244.383L278.608 245.847L269.565 246.213L263.721 245.638L252.141 242.762L244.595 236.436C244.656 236.309 244.706 236.181 244.773 236.055C243.665 235.085 242.834 233.911 242.286 232.695C242.082 232.937 241.889 233.18 241.704 233.424L239.059 228.199V240.726L239.065 240.715C239.059 245.601 242.456 250.488 249.265 254.216C262.873 261.667 284.936 261.667 298.544 254.217C308.889 248.554 311.361 240.217 305.979 233.269Z" fill="#D3008D"/>
<path d="M247.316 238.717L244.595 236.436C244.656 236.309 244.706 236.181 244.773 236.055C243.665 235.085 242.834 233.911 242.286 232.695C242.082 232.937 241.889 233.18 241.704 233.424L239.059 228.199V240.726L239.065 240.715C239.06 245.107 241.814 249.498 247.315 253.05V238.717H247.316Z" fill="#FF2C9C"/>
<path fill-rule="evenodd" clip-rule="evenodd" d="M249.265 214.857C262.873 207.406 284.936 207.406 298.544 214.858C312.153 222.309 312.153 234.389 298.545 241.839C284.937 249.29 262.874 249.29 249.265 241.838C235.657 234.387 235.656 222.307 249.265 214.857ZM252.443 240.099C264.296 246.589 283.514 246.589 295.367 240.099C307.221 233.61 307.221 223.087 295.366 216.597C283.513 210.108 264.295 210.108 252.442 216.597C240.589 223.087 240.589 233.61 252.443 240.099Z" fill="#FF2C9C"/>
<path d="M226.473 255.512L245.786 244.854L248.354 248.799L228.952 259.515L226.473 255.512Z" fill="#D4ECFF"/>
<path d="M228.926 259.531C229.602 259.161 229.602 257.961 228.926 256.85C228.25 255.74 227.154 255.14 226.478 255.51C225.802 255.88 225.802 257.08 226.478 258.191C227.154 259.301 228.25 259.901 228.926 259.531Z" fill="#983BE9"/>
<path d="M228.926 259.531C229.602 259.161 229.602 257.961 228.926 256.85C228.25 255.74 227.154 255.14 226.478 255.51C225.802 255.88 225.802 257.08 226.478 258.191C227.154 259.301 228.25 259.901 228.926 259.531Z" fill="#983BE9"/>
<path d="M248.763 247.799C248.763 248.846 247.988 249.27 247.032 248.747C246.075 248.223 245.301 246.95 245.301 245.903C245.301 244.856 246.076 244.432 247.032 244.955C247.989 245.479 248.763 246.752 248.763 247.799Z" fill="#D4ECFF"/>
<path d="M238.945 259.234C238.945 254.729 235.61 249.251 231.496 246.998C229.39 245.845 227.492 245.767 226.136 246.563L226.134 246.559L185.302 269.065L195.971 286.288L236.373 263.982C236.65 263.87 236.91 263.728 237.149 263.553L237.183 263.535L237.181 263.533C238.28 262.713 238.945 261.241 238.945 259.234Z" fill="#5793CE"/>
<path d="M188.257 273.834L233.957 248.812C233.185 248.093 232.359 247.471 231.495 246.998C229.389 245.845 227.491 245.767 226.136 246.563L226.133 246.559L185.301 269.065L188.257 273.834Z" fill="#D4ECFF"/>
<path d="M195.894 286.33C198.803 284.737 198.803 279.572 195.894 274.794C192.985 270.016 188.269 267.434 185.36 269.027C182.451 270.62 182.451 275.784 185.36 280.562C188.269 285.34 192.985 287.923 195.894 286.33Z" fill="#D4ECFF"/>
<path d="M187.185 284.253C189.865 284.253 192.037 282.193 192.037 279.651C192.037 277.11 189.865 275.049 187.185 275.049C184.505 275.049 182.332 277.11 182.332 279.651C182.332 282.193 184.505 284.253 187.185 284.253Z" fill="#5793CE"/>
<path d="M184.863 279.324C185.654 279.324 186.296 278.715 186.296 277.964C186.296 277.213 185.654 276.605 184.863 276.605C184.071 276.605 183.429 277.213 183.429 277.964C183.429 278.715 184.071 279.324 184.863 279.324Z" fill="white"/>
<path d="M191.186 269.217C188.985 268.012 187.013 267.984 185.649 268.9C186.971 268.316 188.716 268.469 190.637 269.52C194.751 271.773 198.086 277.251 198.086 281.756C198.086 283.85 197.358 285.357 196.174 286.152C197.681 285.485 198.635 283.855 198.635 281.454C198.635 276.947 195.3 271.47 191.186 269.217Z" fill="white"/>
<path d="M295.367 216.597C283.514 210.108 264.295 210.108 252.443 216.597C246.27 219.977 243.32 224.45 243.576 228.877C243.812 224.803 246.762 220.766 252.443 217.656C264.296 211.167 283.514 211.167 295.367 217.656C301.048 220.767 303.999 224.804 304.234 228.878C304.49 224.451 301.54 219.977 295.367 216.597Z" fill="white"/>
<path d="M298.545 241.839C284.937 249.29 262.874 249.29 249.265 241.838C242.707 238.248 239.319 233.582 239.082 228.877C238.827 233.934 242.216 239.037 249.265 242.897C262.874 250.349 284.937 250.349 298.545 242.898C305.595 239.038 308.983 233.936 308.728 228.878C308.491 233.583 305.103 238.249 298.545 241.839Z" fill="white"/>
<path d="M254.412 177.442C254.412 177.442 256.225 175.442 258.26 176.596C260.295 177.75 263.812 180.971 264.914 183.638C266.016 186.305 263.751 186.969 262.199 186.834C260.648 186.7 254.702 182.651 254.053 181.659C253.405 180.666 253.342 179.011 253.598 178.584C253.854 178.158 254.412 177.442 254.412 177.442Z" fill="#5793CE"/>
<path d="M254.479 176.146L254.367 178.64C254.343 179.17 254.61 179.676 255.072 179.938C255.494 180.176 256.106 180.359 256.934 180.227C258.752 179.935 258.915 179.417 259.044 176.923C259.174 174.429 254.479 176.146 254.479 176.146Z" fill="#D4ECFF"/>
<path d="M262.933 172.532C262.933 172.532 264.747 170.532 266.781 171.686C268.816 172.84 272.333 176.062 273.435 178.728C274.536 181.395 272.271 182.059 270.72 181.924C269.169 181.79 263.223 177.741 262.574 176.749C261.926 175.756 261.863 174.101 262.119 173.674C262.375 173.247 262.933 172.532 262.933 172.532Z" fill="#5793CE"/>
<path d="M262.791 171.028L262.679 173.522C262.655 174.053 262.923 174.558 263.386 174.82C263.807 175.059 264.42 175.241 265.247 175.109C267.065 174.818 267.228 174.299 267.357 171.805C267.487 169.312 262.791 171.028 262.791 171.028Z" fill="#D4ECFF"/>
<path d="M241.779 125.553C242.493 113.959 254.364 127.259 254.364 127.259L262.488 135.205L269.284 142.903C270.713 144.469 271.377 146.584 271.101 148.683L268.141 171.169C267.995 172.279 267.043 173.098 265.921 173.089C265.603 173.087 265.24 173.058 264.825 172.993C262.184 172.582 262.379 170.078 262.379 170.078L262.919 149.048L248.075 140.128C248.077 140.128 241.065 137.148 241.779 125.553Z" fill="#5793CE"/>
<path d="M232.947 129.97C233.661 118.376 245.531 131.676 245.531 131.676L253.656 139.622L260.972 147.641C262.401 149.207 263.065 151.322 262.789 153.421L259.829 175.907C259.683 177.017 258.731 177.836 257.608 177.827C257.291 177.825 256.928 177.796 256.512 177.732C253.872 177.321 254.067 174.816 254.067 174.816L254.608 153.786L239.244 144.544C239.244 144.545 232.233 141.566 232.947 129.97Z" fill="#5793CE"/>
<path d="M239.969 92.7512C230.97 96.4738 231.15 101.782 231.15 101.782C231.15 101.782 232.912 121.242 232.31 134.238C232.059 139.672 261.24 140.085 256.888 125.592C251.757 108.502 253.68 94.666 251.279 92.5798C248.877 90.492 242.297 91.7881 239.969 92.7512Z" fill="#FF2C9C"/>
<path d="M237.074 97.4573C237.545 99.2806 239.939 100.241 242.422 99.603C244.904 98.9648 246.535 96.97 246.064 95.1467C245.594 93.3234 243.199 92.3627 240.717 93.001C238.234 93.6392 236.603 95.6348 237.074 97.4573Z" fill="#FFC2B0"/>
<path d="M240.678 99.643L242.333 101.437C242.548 101.67 242.651 101.985 242.615 102.299L241.476 112.121C241.444 112.396 241.521 112.673 241.689 112.893L245.252 117.543C245.41 117.75 245.735 117.693 245.814 117.445L247.753 111.354C247.827 111.123 247.819 110.875 247.733 110.649L244.321 101.728C244.246 101.533 244.229 101.32 244.273 101.116L244.772 98.7509L240.678 99.643Z" fill="white"/>
<path fill-rule="evenodd" clip-rule="evenodd" d="M236.657 97.5642C237.078 99.1974 238.836 100.228 240.903 100.228C241.43 100.228 241.977 100.161 242.529 100.019C243.818 99.6879 244.938 99.0023 245.684 98.0906C246.462 97.1406 246.744 96.0567 246.481 95.0398C245.951 92.9903 243.318 91.8901 240.61 92.5847C237.901 93.2817 236.129 95.5156 236.657 97.5642ZM240.823 93.4164C241.311 93.2915 241.794 93.2319 242.256 93.2319C243.927 93.2319 245.325 94.0081 245.648 95.252C245.841 95.9996 245.617 96.8141 245.017 97.5471C244.386 98.3192 243.426 98.9003 242.314 99.1868C240.065 99.7622 237.9 98.9395 237.491 97.3495C237.08 95.7588 238.575 93.9942 240.823 93.4164Z" fill="white"/>
<path d="M243.578 92.3464C243.578 92.3464 243.5 92.7063 243.656 95.5523C243.705 96.4469 240.565 97.2826 239.754 96.473C238.943 95.6633 239.267 94.821 239.073 91.7767C238.878 88.7324 243.578 92.3464 243.578 92.3464Z" fill="#FFC2B0"/>
<path d="M239.073 91.7759C239.073 91.7759 239.846 94.599 243.657 95.6813L243.599 93.116L239.073 91.7759Z" fill="#EA9C92"/>
<path d="M250.001 88.3418C251.116 84.69 249.054 80.8275 245.394 79.7147C241.734 78.6019 237.863 80.6602 236.747 84.312C235.632 87.9638 237.695 91.8263 241.355 92.9391C245.015 94.0519 248.886 91.9937 250.001 88.3418Z" fill="#FFC2B0"/>
<path d="M241.774 86.5874C241.774 86.5874 245.588 88.2173 248.228 88.2361C250.87 88.2549 250.287 86.0479 250.287 86.0479L242.448 84.9175L241.774 86.5874Z" fill="#EA9C92"/>
<path d="M249.016 87.0176C249.016 87.0176 245.693 85.6105 242.779 86.1973C242.093 86.3352 241.459 86.7009 241.018 87.242C240.874 87.4191 240.691 87.5799 240.485 87.6264C239.968 87.7431 239.122 85.6031 238.117 85.555C237.113 85.5068 236.442 86.2161 237.266 87.5318C238.089 88.8474 237.811 90.3206 237.432 90.5312C237.053 90.7426 232.361 87.4754 235.907 80.4661C239.453 73.4568 249.132 77.4267 250.533 78.8476C250.533 78.8476 252.01 80.1307 253.21 78.9888C253.21 78.9888 254.556 89.0441 249.016 87.0176Z" fill="#396CAA"/>
<path d="M236.199 115.999V121.258C236.199 121.86 236.453 122.435 236.899 122.841L247.725 132.689L246.495 134.566L231.58 124.808C230.912 124.325 230.482 123.582 230.396 122.764L229.376 113.006L236.199 115.999Z" fill="#FFC2B0"/>
<path d="M231.912 99.1525C231.912 99.1525 228.628 104.081 227.404 117.054C227.404 117.054 233.015 118.864 236.198 117.836C239.383 116.809 231.912 99.1525 231.912 99.1525Z" fill="#FF2C9C"/>
<path d="M236.799 105.384C236.799 105.384 238.085 112.25 238.157 115.478C238.177 116.365 237.635 117.165 236.799 117.467V105.384Z" fill="#D3008D"/>
<path d="M239.608 139.526L242 139.211L257.446 130.313C257.941 130.028 258.807 130.063 259.378 130.393L270.323 136.696L271.77 136.506V137.943H271.768C271.778 138.132 271.67 138.314 271.436 138.449L253.931 148.533C253.437 148.818 252.571 148.783 251.999 148.453L240.08 141.589C239.758 141.403 239.598 141.164 239.607 140.941V139.526H239.608Z" fill="#D4ECFF"/>
<path d="M251.212 133.904L252.31 133.272H264.375L270.322 136.696L271.769 136.506V137.943H271.768C271.777 138.132 271.669 138.314 271.435 138.449L253.931 148.533C253.669 148.684 253.304 148.743 252.933 148.719L251.212 133.904Z" fill="#D4ECFF"/>
<path d="M271.127 136.59L271.769 136.505V137.942H271.768C271.777 138.131 271.669 138.313 271.435 138.448L271.127 138.626V136.59Z" fill="#5793CE"/>
<path d="M253.755 148.614C253.285 148.792 252.614 148.753 252.113 148.512V146.067H253.755V148.614Z" fill="#D4ECFF"/>
<path d="M253.931 147.096L271.436 137.012C271.931 136.727 271.869 136.229 271.297 135.899L259.378 129.035C258.806 128.705 257.941 128.67 257.445 128.955L239.941 139.039C239.446 139.325 239.507 139.823 240.079 140.152L251.998 147.016C252.571 147.346 253.436 147.381 253.931 147.096Z" fill="white"/>
<path d="M254.228 145.568L268.783 137.183C269.194 136.946 269.143 136.532 268.667 136.257L262.281 132.674C261.805 132.399 261.086 132.37 260.674 132.608L246.119 140.992C245.707 141.23 245.759 141.643 246.234 141.918L252.622 145.501C253.096 145.775 253.815 145.805 254.228 145.568Z" fill="#D4ECFF"/>
<path d="M258.701 128.704L258.882 129.909C259.036 130.936 259.009 131.982 258.803 132.999L258.588 134.061C258.466 134.66 257.992 135.125 257.389 135.235C256.919 135.321 256.474 134.99 256.421 134.516L256.132 131.939C256.132 131.939 255.471 132.803 255.153 132.803C254.834 132.803 255.509 130.223 256.231 128.763C256.951 127.302 258.701 128.704 258.701 128.704Z" fill="#FFC2B0"/>
<path d="M252.767 109.551L254.645 113.26C255.09 114.137 255.351 115.095 255.414 116.076L256.23 128.763L258.701 128.705L259.823 114.457C259.857 114.017 259.836 113.574 259.759 113.139L258.478 105.914L252.767 109.551Z" fill="#FFC2B0"/>
<path d="M254.524 148.065L255.992 146.154L271.426 137.237C271.921 136.951 272.322 136.186 272.321 135.526L272.308 122.917L273.196 121.761L272.361 121.28L272.361 121.281C272.201 121.178 271.989 121.18 271.755 121.316L254.263 131.421C253.768 131.706 253.367 132.472 253.368 133.132L253.383 146.863C253.383 147.233 253.51 147.491 253.71 147.595L254.524 148.065Z" fill="white"/>
<path d="M265.198 140.835L266.295 140.201L272.315 129.769L272.308 122.917L273.196 121.761L272.361 121.28L272.361 121.281C272.201 121.178 271.989 121.18 271.755 121.316L254.263 131.421C254.001 131.572 253.767 131.857 253.603 132.19L265.198 140.835Z" fill="white"/>
<path d="M272.802 122.274L273.196 121.761L272.361 121.279L272.361 121.28C272.201 121.177 271.989 121.179 271.755 121.315L271.447 121.493L272.802 122.274Z" fill="white"/>
<path d="M254.104 131.532C253.715 131.849 253.414 132.448 253.374 133.002L255.083 133.986L255.902 132.567L254.104 131.532Z" fill="white"/>
<path d="M255.096 131.902L272.589 121.797C273.084 121.511 273.485 121.813 273.486 122.471L273.501 136.203C273.502 136.861 273.101 137.627 272.606 137.914L255.114 148.019C254.619 148.305 254.218 148.003 254.217 147.344L254.202 133.613C254.201 132.954 254.601 132.187 255.096 131.902Z" fill="#D4ECFF"/>
<path d="M273.485 122.472C273.485 121.965 273.245 121.677 272.91 121.697C272.985 121.828 273.039 121.987 273.039 122.201L273.053 135.932C273.054 136.591 272.653 137.357 272.159 137.643L254.666 147.748C254.551 147.814 254.444 147.842 254.344 147.847C254.498 148.12 254.779 148.212 255.113 148.019L272.604 137.914C273.099 137.628 273.5 136.861 273.499 136.204L273.485 122.472Z" fill="white"/>
<path d="M246.495 134.566L246.776 135.145C247.099 135.813 247.606 136.373 248.238 136.762L249.976 137.83C250.516 138.162 251.2 138.19 251.749 137.871C251.769 137.86 251.788 137.847 251.808 137.835C252.36 137.49 252.41 136.699 251.956 136.233L250.14 134.37C250.14 134.37 251.16 135.151 251.446 134.837C251.656 134.606 250.457 133.483 249.536 133.447C248.616 133.41 247.725 132.688 247.725 132.688L246.495 134.566Z" fill="#FFC2B0"/>
<path d="M251.099 92.5521C251.099 92.5521 257.755 99.7785 260.44 106.407C260.44 106.407 258.164 110.499 252.592 112.104C247.022 113.711 251.099 92.5521 251.099 92.5521Z" fill="#FF2C9C"/>
<path d="M253.846 111.676L252.767 101.277L255.31 111.02C254.857 111.256 254.366 111.475 253.846 111.676Z" fill="#D3008D"/>
<path d="M246.114 91.0935L247.903 90.603C247.903 90.603 247.049 91.9432 245.802 92.2852C244.556 92.6271 244.362 91.5743 244.362 91.5743L246.114 91.0935Z" fill="white"/>
<path d="M236.56 88.237C236.56 88.7862 237.006 89.2311 237.556 89.2311C238.107 89.2311 238.552 88.7862 238.552 88.237C238.552 87.6877 238.107 87.2429 237.556 87.2429C237.006 87.2429 236.56 87.6877 236.56 88.237Z" fill="white"/>
</svg>
