<svg width="367" height="372" viewBox="0 0 367 372" fill="none" xmlns="http://www.w3.org/2000/svg">
<rect width="367" height="371.989" fill="white"/>
<path d="M252.397 317.016L177.752 275.08C175.157 273.622 175.482 271.076 178.479 269.392C181.475 267.709 186.008 267.526 188.603 268.984L263.248 310.92C265.843 312.378 265.518 314.925 262.521 316.608C259.525 318.291 254.992 318.474 252.397 317.016Z" fill="#EFEFEF"/>
<path d="M264.02 93.4292L185.542 48.1866C182.964 46.7005 180.622 46.6634 178.85 47.779L178.847 47.7613L169 53.4555L175.603 54.6852C175.583 55.0229 175.563 55.3615 175.563 55.7186V240.509C175.563 247.846 180.032 256.368 185.543 259.545L262.919 304.152C262.214 306.359 260.715 311 260.715 311L270.344 305.425L270.341 305.424C272.574 304.275 274 301.398 274 297.256V112.465C273.999 105.129 269.532 96.6065 264.02 93.4292Z" fill="#5793CE"/>
<path d="M176 240.19C176 247.56 180.448 256.12 185.936 259.312L262.968 304.12C262.266 306.337 260.774 311 260.774 311L270.36 305.4L270.357 305.399C272.581 304.245 274 301.355 274 297.194V111.568C274 107.724 272.783 103.561 270.846 100L176 155.158V240.19Z" fill="#173D7A"/>
<path d="M255.065 310.809L176.935 265.74C171.448 262.576 167 254.085 167 246.777V62.694C167 55.3854 171.448 52.0266 176.935 55.1908L255.065 100.26C260.552 103.424 265 111.915 265 119.223V303.306C265 310.615 260.552 313.973 255.065 310.809Z" fill="#D4ECFF"/>
<path d="M255.091 100.346L177.168 55.1876C174.345 53.5525 171.805 53.6672 170 55.1549C171.691 54.3387 173.826 54.4949 176.152 55.8423L254.075 101.001C259.548 104.172 263.984 112.679 263.984 120.001V304.449C263.984 307.996 262.938 310.602 261.243 312C263.529 310.896 265 308.004 265 303.795V119.347C265 112.024 260.563 103.518 255.091 100.346Z" fill="white"/>
<path d="M253.521 305.116L177.479 261.847C173.349 259.496 170 253.191 170 247.764V66.4559C170 61.0288 173.349 58.5344 177.479 60.8845L253.521 104.153C257.651 106.503 261 112.808 261 118.235V299.543C261.001 304.97 257.652 307.466 253.521 305.116Z" fill="white"/>
<path d="M253.823 304.86L177.171 261.56C173.007 259.208 169.631 252.9 169.631 247.468V66.0315C169.631 62.9832 170.695 60.8611 172.364 60C170.337 60.6181 169 62.8696 169 66.2859V247.723C169 253.154 172.376 259.464 176.54 261.816L253.192 305.115C255.02 306.147 256.695 306.245 258 305.572C256.804 305.935 255.368 305.733 253.823 304.86Z" fill="#5793CE"/>
<path d="M220.999 248L183 226.889V138L200.904 147.947C213.339 154.856 221 167.624 221 181.441V248H220.999Z" fill="#EFEFEF"/>
<path d="M170.137 130.883L170.141 130.89C166.454 128.685 161.333 128.956 155.675 132.238C144.476 138.736 135.364 154.594 135.364 167.589V176.967L135.749 177.194L172.341 198.825L172.895 187.604L173.351 183.246L175.291 176.479L175.514 175.444L179.674 167.018L182.952 162.904L185.608 159.721L192.081 154.598L192.65 154.173L195.833 152.798L200.113 151.68H203.451L207.184 152.337L170.137 130.883Z" fill="#D4ECFF"/>
<path d="M174.801 217.613L175.987 216.924V174.2C175.372 175.043 175.082 176.125 174.801 177.225V217.613Z" fill="#D4ECFF"/>
<path d="M211.778 239.021L174.801 217.612L175.182 177.168L176.594 173.082L180.874 165.685L185.938 159.65L190.503 155.98L195.439 152.97L204.395 151.938L209.131 154.633L211.778 158.704L212.612 164.954L212.327 232.56L211.778 239.021Z" fill="#D4ECFF"/>
<path d="M170.142 130.89C167.057 129.045 162.966 128.942 158.4 130.877L196.075 152.735L200.115 151.68H203.453L207.186 152.337L170.137 130.883L170.142 130.89Z" fill="#5793CE"/>
<path d="M159.287 130.525C158.114 130.96 156.909 131.524 155.676 132.239C154.851 132.718 154.04 133.252 153.241 133.828L190.798 155.617L192.083 154.599L192.652 154.174L195.835 152.798L197.105 152.466L159.287 130.525Z" fill="#E9F6FF"/>
<path d="M185.928 159.47L191.037 155.427L153.491 133.644C151.792 134.843 150.154 136.249 148.605 137.817L185.928 159.47Z" fill="white"/>
<path d="M212.964 238.332L211.778 239.021V166.118C211.778 153.882 203.199 148.905 192.653 155.023C182.108 161.141 173.528 176.074 173.528 188.309V198.138L172.342 198.826V188.998C172.342 176.003 181.453 160.145 192.653 153.648C203.852 147.15 212.964 152.436 212.964 165.43V238.332Z" fill="#5793CE"/>
<path d="M148 161L145.935 169.411L146.968 183L144.35 181.465L141 174.079L143.933 164.744L148 161Z" fill="#AEDEED"/>
<path opacity="0.4" fill-rule="evenodd" clip-rule="evenodd" d="M208.896 213.224C209.141 213.356 209.387 213.423 209.62 213.423C209.814 213.423 209.999 213.377 210.167 213.286C210.586 213.06 210.826 212.582 210.826 211.974V191.292C210.826 190.281 210.177 189.139 209.349 188.692L181.213 173.515C180.766 173.274 180.314 173.253 179.941 173.454C179.522 173.68 179.282 174.157 179.282 174.766V195.448C179.282 196.459 179.931 197.601 180.76 198.048L208.896 213.224ZM180.394 174.186C180.423 174.171 180.456 174.164 180.49 174.164C180.592 174.164 180.706 174.219 180.761 174.246L208.897 189.423C209.453 189.723 209.922 190.579 209.922 191.291V211.973C209.922 212.32 209.811 212.502 209.715 212.553C209.604 212.616 209.423 212.531 209.35 212.492L181.214 197.315C180.658 197.015 180.188 196.16 180.188 195.448V174.766C180.188 174.42 180.299 174.238 180.394 174.186Z" fill="white"/>
<path d="M189.495 198.891L189.297 198.784C188.563 198.388 187.969 197.327 187.969 196.414V186.558C187.969 185.644 188.563 185.225 189.297 185.62L189.495 185.727C190.228 186.123 190.823 187.184 190.823 188.097V197.953C190.823 198.867 190.228 199.287 189.495 198.891Z" fill="#B2D3EA"/>
<path d="M195.154 201.943L194.955 201.837C194.222 201.441 193.627 200.38 193.627 199.466V193.698C193.627 192.784 194.221 192.365 194.955 192.76L195.154 192.867C195.887 193.263 196.481 194.324 196.481 195.237V201.006C196.482 201.919 195.887 202.339 195.154 201.943Z" fill="#B2D3EA"/>
<path d="M200.812 204.995L200.614 204.889C199.88 204.493 199.286 203.431 199.286 202.518V188.788C199.286 187.874 199.88 187.454 200.614 187.85L200.812 187.956C201.545 188.352 202.14 189.414 202.14 190.327V204.058C202.141 204.971 201.546 205.391 200.812 204.995Z" fill="#396CAA"/>
<path d="M106.675 286.411C117.637 286.411 126.523 281.348 126.523 275.101C126.523 268.855 117.637 263.792 106.675 263.792C95.7138 263.792 86.8277 268.855 86.8277 275.101C86.8277 281.348 95.7138 286.411 106.675 286.411Z" fill="#EFEFEF"/>
<path d="M96.9348 156.404C96.9348 156.404 97.3782 165.418 98.0731 171.476C98.768 177.534 113.55 166.823 113.55 166.823V159.926L96.9348 156.404Z" fill="#FF2C9C"/>
<path d="M104.809 268.559C105.03 269.106 108.861 273.709 112.691 274.859C114.356 275.36 115.476 275.425 116.21 275.339C116.946 275.252 117.401 274.504 117.153 273.814C116.494 271.983 114.605 268.168 109.804 265.82C103.309 262.641 104.809 268.559 104.809 268.559Z" fill="#173D7A"/>
<path d="M103.532 270.326C103.532 270.326 104.975 273.668 105.42 276.463C105.69 278.167 104.743 280.381 103.963 281.849C103.479 282.76 102.251 282.964 101.479 282.273C100.228 281.152 98.6341 279.204 98.3699 276.408C97.9256 271.696 98.3699 270.875 98.3699 270.875L103.532 270.326Z" fill="#173D7A"/>
<path d="M94.3053 213.379C94.3053 213.379 93.8059 219.322 94.3053 225.896C94.8048 232.47 96.5937 263.216 96.9267 270.613C96.9267 270.613 96.7602 272.852 101.152 272.359C105.544 271.866 105.191 269.38 105.191 269.38C105.191 269.38 111.359 269.297 111.553 265.709C111.748 262.121 117.871 222.856 117.871 208.74L94.3053 213.379Z" fill="#D4ECFF"/>
<path d="M120.152 182.647L123.174 187.267L133.562 199.651C133.562 199.651 133.205 200.801 131.912 201.102C130.901 201.336 122.165 193.109 118.39 189.499C117.388 188.54 117.221 187.013 117.992 185.865L120.152 182.647Z" fill="#FFC2B0"/>
<path d="M114.256 163.685C114.256 163.685 119.057 163.562 120.729 170.41C122.4 177.258 123.707 185.832 122.253 186.544C117.89 188.683 115.129 186.18 115.129 186.18L114.256 163.685Z" fill="#5793CE"/>
<path d="M115.693 163.975C114.874 163.638 113.955 163.593 113.102 163.834C109.012 164.994 93.6339 169.448 91.0994 171.586C88.1714 174.057 95.4907 187.939 95.3857 192.49C95.2798 197.041 94.7604 202.407 94.3533 207.354C93.9461 212.302 93.3941 215.014 97.4949 217.118C101.595 219.221 108.596 219.319 113.835 215.378C119.075 211.436 118.125 208.74 117.907 205.879C117.689 203.018 115.905 190.644 116.06 187.131C116.06 187.131 117.905 185.789 119.274 183.487C120.642 181.184 118.226 176.952 117.222 174.2C116.219 171.449 117.788 168.302 117.477 166.058C117.317 164.902 116.569 164.337 115.693 163.975Z" fill="#5793CE"/>
<path d="M110.777 168.708C111.101 171.208 108.777 173.562 105.587 173.965C102.396 174.369 99.5462 172.67 99.2223 170.169C98.8974 167.669 101.221 165.315 104.412 164.911C107.603 164.509 110.452 166.208 110.777 168.708Z" fill="white"/>
<path d="M109.128 168.917C109.36 170.704 107.7 172.386 105.419 172.674C103.138 172.962 101.102 171.748 100.869 169.961C100.637 168.174 102.298 166.491 104.579 166.204C106.86 165.915 108.897 167.13 109.128 168.917Z" fill="#FFC2B0"/>
<path d="M106.862 163.05C106.862 163.05 104.087 160.797 103.541 161.938C102.995 163.08 102.547 167.977 102.547 167.977L108.06 169.439L107.223 164.476C107.223 164.476 108.326 163.553 106.862 163.05Z" fill="#FFC2B0"/>
<path d="M115.478 157.683C115.21 162.162 111.314 165.578 106.776 165.314C102.238 165.05 98.7762 161.204 99.044 156.725C99.3118 152.247 103.208 148.83 107.746 149.094C112.285 149.358 115.747 153.204 115.478 157.683Z" fill="#FFC2B0"/>
<path d="M103.157 163.357C103.108 163.613 103.061 163.888 103.016 164.167C103.57 166.994 107.855 168.231 107.855 168.231L107.222 164.475C107.222 164.475 107.741 164.041 107.595 163.606C105.901 163.078 103.767 162.611 103.157 163.357Z" fill="#EA9C92"/>
<path d="M115.478 157.683C115.21 162.162 111.314 165.578 106.776 165.314C102.238 165.05 98.7762 161.204 99.044 156.725C99.3118 152.247 103.208 148.83 107.746 149.094C112.285 149.358 115.747 153.204 115.478 157.683Z" fill="#FFC2B0"/>
<path d="M86.9806 191.593L87.9017 213.333L91.1221 213.661L93.2186 194.09L86.9806 191.593Z" fill="#FFC2B0"/>
<path d="M97.5637 189.776C97.3899 189.018 95.9802 188.396 95.7648 187.409C94.6591 182.344 94.3931 174.876 94.3931 174.876L93.4937 185.078C94.5315 188.104 95.4237 190.88 95.3866 192.49C95.3251 195.161 95.1188 198.114 94.8781 201.097V201.106C94.8772 201.107 98.6287 194.418 97.5637 189.776Z" fill="#396CAA"/>
<path d="M91.7148 171.141C91.7148 171.141 89.1396 172.113 87.6828 179.92C86.2251 187.726 85.1356 195.546 87.7334 196.553C90.3312 197.561 92.5029 198.319 93.2666 196.231C94.0303 194.143 94.5035 184.082 94.5994 180.463C94.6953 176.845 94.8347 171.857 91.7148 171.141Z" fill="#5793CE"/>
<path d="M132.792 198.747C132.792 198.747 134.186 199.252 135.194 200.336C136.021 201.225 136.475 201.98 136.836 202.512C137.637 203.693 138.314 206.245 137.826 206.563C137.337 206.881 134.539 202.289 134.089 203.357C133.638 204.425 134.092 205.412 133.514 205.428C132.936 205.444 130.926 200.812 129.345 199.376C127.763 197.94 132.792 198.747 132.792 198.747Z" fill="#FFC2B0"/>
<path d="M105.19 269.38C105.19 269.38 105.954 269.37 106.952 269.2L108.16 221.407L105.19 269.38Z" fill="#396CAA"/>
<path d="M100.529 243.564L98.8151 241.356L80.796 231.059C80.2187 230.729 79.7509 229.844 79.7518 229.084L79.7672 214.523L78.7311 213.188L79.7047 212.631L79.7056 212.632C79.892 212.513 80.14 212.517 80.4123 212.672L100.833 224.341C101.41 224.672 101.878 225.556 101.877 226.317L101.86 242.174C101.859 242.602 101.711 242.9 101.478 243.02L100.529 243.564Z" fill="#5793CE"/>
<path d="M88.0682 235.215L86.7879 234.483L79.7608 222.436L79.7681 214.524L78.732 213.189L79.7056 212.632L79.7065 212.633C79.8929 212.514 80.1409 212.518 80.4132 212.673L100.834 224.342C101.139 224.516 101.413 224.847 101.604 225.231L88.0682 235.215Z" fill="#5793CE"/>
<path d="M79.1917 213.781L78.732 213.189L79.7056 212.632L79.7065 212.633C79.8929 212.514 80.1409 212.518 80.4132 212.673L80.7734 212.879L79.1917 213.781Z" fill="#5793CE"/>
<path d="M101.019 224.472C101.473 224.838 101.825 225.53 101.873 226.169L99.8774 227.306L98.9209 225.668L101.019 224.472Z" fill="#5793CE"/>
<path d="M99.8611 224.899L79.4405 213.23C78.8623 212.899 78.3936 213.248 78.3927 214.009L78.3755 229.866C78.3746 230.627 78.8424 231.511 79.4197 231.841L99.8403 243.51C100.418 243.841 100.887 243.492 100.888 242.731L100.905 226.873C100.906 226.113 100.439 225.229 99.8611 224.899Z" fill="#D4ECFF"/>
<path d="M95.6662 236.272L94.6935 235.717V227.471L95.6662 228.024V236.272Z" fill="white"/>
<path d="M93.3941 234.977L92.4214 234.423V226.176L93.3941 226.73V234.977Z" fill="white"/>
<path d="M91.1221 233.682L90.1494 233.128V224.881L91.1221 225.435V233.682Z" fill="white"/>
<path d="M87.9279 213.151C87.9279 213.151 87.0765 218.226 87.205 219.851C87.3335 221.476 88.2148 224.157 88.8835 224.1C89.5521 224.043 88.9052 217.565 90.0806 218.21C91.2551 218.855 91.379 219.962 91.9111 219.571C92.4431 219.179 90.9836 213.641 91.3727 211.24C91.7609 208.839 87.9279 213.151 87.9279 213.151Z" fill="#FFC2B0"/>
<path d="M110.422 157.913C114.551 159.361 115.356 158.477 115.395 158.43C115.433 158.185 115.462 157.936 115.478 157.683C115.531 156.783 115.429 155.912 115.203 155.086L104.49 153.659C104.491 153.659 106.182 156.426 110.422 157.913Z" fill="#EA9C92"/>
<path d="M115.775 149.589C114.801 148.765 111.29 144.695 104.999 145.656C101.067 146.256 97.7537 148.903 97.018 154.942C96.5231 159.011 98.036 163.018 100.823 165.98C100.974 165.911 101.13 165.848 101.27 165.757C102.845 164.734 103.015 164.171 103.015 164.166L103.364 161.084C103.353 160.647 103.022 160.257 102.579 160.231C102.237 160.209 101.822 160.048 101.426 159.537C100.523 158.37 100.94 156.552 102.747 156.484C103.691 156.448 104.057 155.944 104.19 155.471C104.307 155.06 104.746 154.83 105.154 154.976C107.209 155.71 112.276 157.293 115.536 156.381C119.707 155.214 116.748 150.412 115.775 149.589Z" fill="#FF2C9C"/>
<path d="M111.084 161.583L113.602 160.9C113.602 160.9 112.4 162.767 110.645 163.243C108.891 163.719 108.617 162.253 108.617 162.253L111.084 161.583Z" fill="white"/>
<path d="M92.2088 219.414L90.0634 218.201L90.8696 219.5L91.9536 219.896L92.2088 219.414Z" fill="#5793CE"/>
<path d="M139.755 310.626C149.102 315.833 164.259 315.832 173.607 310.626C182.956 305.419 182.956 296.977 173.608 291.77C164.26 286.563 149.104 286.564 139.755 291.77C130.407 296.977 130.407 305.419 139.755 310.626Z" fill="#EFEFEF"/>
<path d="M142.014 294.131C140.347 294.819 139.297 296.612 139.435 298.539C139.501 299.449 139.614 300.296 139.812 300.695C140.342 301.769 142.081 303.244 144.857 302.185C147.633 301.127 153.798 295.539 154.029 291.882C154.457 285.087 146.404 292.322 142.014 294.131Z" fill="#173D7A"/>
<path d="M158.323 305.369C158.323 305.369 157.658 309.286 157.981 310.005C158.304 310.723 160.235 312.255 163.09 311.924C165.944 311.592 174.155 308.86 175.984 303.64C178.819 295.547 160.134 304.247 160.134 304.247L158.323 305.369Z" fill="#173D7A"/>
<path d="M166.346 242.744L166.982 303.898C166.915 306.025 165.471 307.822 163.529 308.138C163.289 308.177 163.032 308.209 162.757 308.232C160.79 308.398 159.645 307.584 158.991 306.73C158.461 306.037 158.183 305.159 158.144 304.26L157.335 278.155L153.295 254.813L147.706 296.124C147.617 297.241 147.062 298.274 146.17 298.844C145.554 299.237 144.718 299.542 143.621 299.51C142.022 299.464 140.911 298.638 140.233 297.9C139.696 297.316 139.413 296.512 139.424 295.688L141.64 270.832L142.464 239.128L166.346 242.744Z" fill="#D4ECFF"/>
<path d="M158.138 188.004L157.136 193.577C157.136 193.577 157.098 195.478 159.299 196.005C161.499 196.532 162.179 195.162 162.179 195.162L163.175 188.886L158.138 188.004Z" fill="#FFC2B0"/>
<path d="M170.265 184.953C168.702 189.726 163.868 192.497 159.467 191.141C155.066 189.785 152.765 184.816 154.326 180.042C155.888 175.268 160.723 172.497 165.124 173.854C169.525 175.21 171.827 180.179 170.265 184.953Z" fill="#FFC2B0"/>
<path d="M158.399 193.679C158.246 193.62 149.063 187.915 145.668 193.885C140.133 203.619 144.182 214.78 142.207 239.012C141.876 243.067 147.863 245.538 150.693 247.097C153.211 248.485 156.03 249.336 158.931 249.358C161.8 249.381 167.304 246.919 167.104 243.3C166.185 226.653 167.711 212.622 169.12 199.008C169.12 199.007 167.359 197.178 158.399 193.679Z" fill="#5793CE"/>
<path d="M153.294 254.813L147.705 296.124C147.616 297.241 147.062 298.274 146.169 298.844C146.024 298.937 145.863 299.023 145.692 299.104C146.852 298.265 150.24 263.589 150.867 259.732C151.494 255.874 153.294 254.813 153.294 254.813Z" fill="#396CAA"/>
<path d="M188.177 198.722L195.865 183.999L193.453 182.53L185.484 193.745L188.177 198.722Z" fill="#FFC2B0"/>
<path d="M137.463 183.089L141.203 166.673L144.182 166.705L143.064 180.319L137.463 183.089Z" fill="#FFC2B0"/>
<path d="M169.12 199.007C169.12 199.007 177.72 202.279 185.108 193.287C185.759 192.495 187.096 192.583 187.482 193.437C188.146 194.91 188.979 197.137 187.969 199.227C183.504 208.473 168.267 208.152 164.596 213.335C160.924 218.518 169.12 199.007 169.12 199.007Z" fill="#5793CE"/>
<path d="M152.574 191.634C152.574 191.634 145.473 192.161 144.451 186.231C143.925 183.178 143.767 181.355 143.737 180.305C143.717 179.593 143.077 179.055 142.345 179.142C140.644 179.345 138.011 179.835 137.654 180.934C137.121 182.576 136.118 190.627 143.131 202.981C147.727 211.075 152.574 191.634 152.574 191.634Z" fill="#5793CE"/>
<path d="M141.188 166.714L141.256 164.843C141.28 164.181 141.48 163.538 141.837 162.973L143.803 159.857L144.317 159.233C144.79 158.658 145.638 158.518 146.282 158.91L146.734 159.184C147.311 159.534 147.643 160.16 147.6 160.816L146.582 163.48L147.869 163.239C148.119 163.192 148.361 163.352 148.405 163.594C148.443 163.799 148.327 164.003 148.127 164.081L146.025 164.899L144.118 167.505L141.188 166.714Z" fill="#FFC2B0"/>
<path d="M195.922 184.092L196.822 182.433C197.139 181.846 197.296 181.191 197.275 180.531L197.162 176.884L197.035 176.097C196.919 175.37 196.253 174.845 195.492 174.878L194.959 174.901C194.278 174.93 193.668 175.316 193.37 175.908L192.89 178.708L191.895 177.886C191.701 177.726 191.41 177.75 191.246 177.938C191.108 178.099 191.105 178.331 191.239 178.494L192.647 180.207L193.011 183.775L195.922 184.092Z" fill="#FFC2B0"/>
<path d="M163.513 211.481C162.765 214.769 167.268 239.571 162.261 248.641C164.765 247.663 167.24 245.748 167.105 243.3C166.448 231.396 167.042 220.831 167.949 210.798C172.23 208.706 178.921 207.458 183.653 204.114C178.578 205.918 164.18 208.546 163.513 211.481Z" fill="#396CAA"/>
<path d="M155.097 192.105L156.372 190.841C156.372 190.841 158.47 192.909 160.155 193.267C160.155 193.267 162.183 193.822 163.175 193.869L163.996 196.053C163.996 196.053 157.316 195.592 155.097 192.105Z" fill="white"/>
<path d="M164.274 185.101C164.627 185.095 164.953 184.94 165.153 184.661C165.502 184.175 165.281 181.936 166.355 181.566C168.035 180.987 172.019 183.015 172.444 177.171C172.666 174.133 171.133 173.326 171.14 171.662C171.14 171.662 171.273 172.496 163.171 171.976C155.069 171.457 152.435 178.398 152.243 181.704C152.051 185.01 153.709 190.446 159.247 191.192C160.165 191.316 164.022 188.325 163.922 187.932C163.822 187.54 162.367 187.561 162.578 186.42C162.752 185.468 163.354 185.117 164.274 185.101Z" fill="#173D7A"/>
<path d="M211.961 270.573L188.543 256.535C187.502 255.911 186.658 254.238 186.658 252.797V234.717C186.658 233.277 187.501 232.614 188.543 233.238L211.961 247.276C213.001 247.9 213.845 249.573 213.845 251.014V269.094C213.845 270.535 213.001 271.197 211.961 270.573Z" fill="#EFEFEF"/>
<path d="M209.644 241.892L186.226 227.854C185.762 227.576 185.344 227.566 185.015 227.753C185.015 227.752 185.017 227.737 185.017 227.737L182.745 229.1C182.745 229.1 183.75 229.481 184.341 229.706V247.412C184.341 248.853 185.184 250.527 186.226 251.151L208.609 264.568V266.646L210.904 265.274L210.892 265.269C211.279 265.024 211.528 264.484 211.528 263.709V245.63C211.527 244.189 210.684 242.516 209.644 241.892Z" fill="#173D7A"/>
<path d="M207.33 266.572L183.912 252.534C182.872 251.91 182.028 250.237 182.028 248.796V230.717C182.028 229.276 182.871 228.614 183.912 229.238L207.33 243.275C208.371 243.9 209.215 245.572 209.215 247.014V265.093C209.215 266.533 208.371 267.195 207.33 266.572Z" fill="#5793CE"/>
<path d="M207.33 243.276L183.912 229.238C183.321 228.883 182.799 228.956 182.454 229.339C182.706 229.318 182.986 229.379 183.285 229.559L206.703 243.597C207.744 244.221 208.588 245.894 208.588 247.335V265.414C208.588 266.035 208.424 266.5 208.162 266.791C208.784 266.737 209.215 266.118 209.215 265.092V247.013C209.215 245.573 208.371 243.9 207.33 243.276Z" fill="white"/>
<path d="M191.787 246.304C191.787 247.35 191.079 247.774 190.207 247.252C189.334 246.729 188.627 245.457 188.627 244.411C188.627 243.364 189.334 242.941 190.207 243.463C191.08 243.986 191.787 245.258 191.787 246.304Z" fill="white"/>
<path d="M196.574 249.173C196.574 250.219 195.866 250.643 194.994 250.121C194.121 249.598 193.414 248.326 193.414 247.279C193.414 246.233 194.121 245.809 194.994 246.332C195.866 246.855 196.574 248.127 196.574 249.173Z" fill="white"/>
<path d="M201.361 252.042C201.361 253.088 200.653 253.512 199.781 252.99C198.908 252.466 198.201 251.195 198.201 250.148C198.201 249.102 198.908 248.678 199.781 249.201C200.653 249.725 201.361 250.997 201.361 252.042Z" fill="white"/>
<path d="M253.745 292.512L228.806 278.569C227.698 277.949 226.799 276.288 226.799 274.856V234.443C226.799 233.012 227.697 232.354 228.806 232.974L253.745 246.917C254.853 247.537 255.752 249.198 255.752 250.63V291.042C255.751 292.475 254.853 293.132 253.745 292.512Z" fill="#EFEFEF"/>
<path d="M251.277 241.569L226.337 227.626C225.844 227.35 225.398 227.34 225.048 227.526C225.048 227.524 225.05 227.511 225.05 227.511L222.63 228.865C222.63 228.865 223.701 229.243 224.331 229.466V269.508C224.331 270.939 225.229 272.602 226.337 273.221L250.175 286.548V288.612L252.619 287.249L252.606 287.245C253.019 287.001 253.284 286.465 253.284 285.695V245.282C253.284 243.85 252.385 242.189 251.277 241.569Z" fill="#D3008D"/>
<path d="M248.814 288.539L223.875 274.596C222.767 273.976 221.868 272.314 221.868 270.883V230.469C221.868 229.039 222.766 228.381 223.875 229L248.814 242.943C249.922 243.563 250.821 245.225 250.821 246.656V287.07C250.82 288.5 249.922 289.159 248.814 288.539Z" fill="#FF2C9C"/>
<path d="M248.814 242.944L223.875 229.001C223.245 228.649 222.689 228.721 222.322 229.102C222.59 229.081 222.888 229.141 223.207 229.321L248.146 243.264C249.254 243.884 250.153 245.545 250.153 246.977V287.389C250.153 288.006 249.979 288.468 249.7 288.757C250.362 288.704 250.821 288.088 250.821 287.07V246.657C250.82 245.226 249.922 243.563 248.814 242.944Z" fill="white"/>
<path d="M239.982 248.421C239.982 250.667 238.354 251.578 236.344 250.454C234.334 249.33 232.706 246.598 232.706 244.352C232.706 242.105 234.334 241.194 236.344 242.318C238.353 243.442 239.982 246.175 239.982 248.421Z" fill="white"/>
<path d="M241.499 254.772C241.494 254.737 241.489 254.702 241.483 254.667C241.328 253.721 240.403 252.89 239.792 253.1C238.849 253.426 237.65 253.266 236.343 252.536C235.036 251.805 233.837 250.623 232.894 249.244C232.284 248.351 231.358 248.148 231.203 248.92C231.198 248.949 231.192 248.977 231.188 249.007L229.462 259.617L243.223 267.311L241.499 254.772Z" fill="white"/>
<path d="M244.199 275.388L227.492 266.047V264.881L244.199 274.222V275.388Z" fill="white"/>
<path d="M239.154 277.662L227.492 271.142V269.976L239.154 276.496V277.662Z" fill="white"/>
<path d="M237.581 274.236L227.492 268.595V267.429L237.581 273.07V274.236Z" fill="white"/>
<path d="M244.199 277.935L239.154 275.115V273.949L244.199 276.769V277.935Z" fill="white"/>
<path d="M253.745 235.434L228.806 221.491C227.698 220.871 226.799 219.209 226.799 217.778V177.364C226.799 175.934 227.697 175.276 228.806 175.895L253.745 189.838C254.853 190.458 255.752 192.12 255.752 193.551V233.965C255.751 235.395 254.853 236.053 253.745 235.434Z" fill="#EFEFEF"/>
<path d="M251.277 184.491L226.337 170.548C225.844 170.272 225.398 170.261 225.048 170.448C225.048 170.446 225.05 170.432 225.05 170.432L222.63 171.786C222.63 171.786 223.701 172.164 224.331 172.387V212.429C224.331 213.86 225.229 215.522 226.337 216.142L250.175 229.469V231.532L252.619 230.17L252.606 230.165C253.019 229.922 253.284 229.386 253.284 228.616V188.203C253.284 186.772 252.385 185.11 251.277 184.491Z" fill="#5793CE"/>
<path d="M248.814 231.46L223.875 217.517C222.767 216.897 221.868 215.236 221.868 213.804V173.392C221.868 171.961 222.766 171.303 223.875 171.923L248.814 185.866C249.922 186.486 250.821 188.147 250.821 189.579V229.992C250.82 231.422 249.922 232.079 248.814 231.46Z" fill="#D4ECFF"/>
<path d="M248.814 185.865L223.875 171.922C223.245 171.57 222.689 171.642 222.322 172.023C222.59 172.001 222.888 172.062 223.207 172.241L248.146 186.184C249.254 186.804 250.153 188.466 250.153 189.896V230.309C250.153 230.926 249.979 231.388 249.7 231.677C250.362 231.624 250.821 231.008 250.821 229.99V189.577C250.82 188.146 249.922 186.485 248.814 185.865Z" fill="white"/>
<path d="M244.237 194.992L227.529 185.651V184.485L244.237 193.826V194.992Z" fill="#5793CE"/>
<path d="M239.193 197.266L227.529 190.745V189.58L239.193 196.1V197.266Z" fill="#5793CE"/>
<path d="M237.619 193.839L227.529 188.198V187.032L237.619 192.673V193.839Z" fill="#5793CE"/>
<path d="M244.237 197.539L239.193 194.719V193.553L244.237 196.373V197.539Z" fill="#5793CE"/>
<path d="M244.237 204.831L227.529 195.491V194.325L244.237 203.665V204.831Z" fill="#5793CE"/>
<path d="M239.193 207.106L227.529 200.586V199.419L239.193 205.94V207.106Z" fill="#5793CE"/>
<path d="M237.619 203.679L227.529 198.038V196.872L237.619 202.513V203.679Z" fill="#5793CE"/>
<path d="M244.237 207.379L239.193 204.558V203.392L244.237 206.213V207.379Z" fill="#5793CE"/>
<path d="M244.237 214.671L227.529 205.33V204.164L244.237 213.505V214.671Z" fill="#5793CE"/>
<path d="M239.193 216.946L227.529 210.425V209.259L239.193 215.78V216.946Z" fill="#5793CE"/>
<path d="M237.619 213.519L227.529 207.878V206.712L237.619 212.352V213.519Z" fill="#5793CE"/>
<path d="M244.237 217.218L239.193 214.398V213.232L244.237 216.053V217.218Z" fill="#5793CE"/>
<path d="M194.086 212.686L183.107 206.364V205.342L194.086 211.663V212.686Z" fill="white"/>
<path d="M200.891 216.603L196.202 213.904V212.882L200.891 215.581V216.603Z" fill="white"/>
<path d="M194.465 215.128L189.776 212.429V211.407L194.465 214.107V215.128Z" fill="white"/>
<path d="M204.619 220.975L196.202 216.129V215.107L204.619 219.954V220.975Z" fill="white"/>
<path d="M210.381 226.518L197.932 219.35V218.329L210.381 225.496V226.518Z" fill="white"/>
<path d="M207.598 220.465L202.909 217.766V216.744L207.598 219.443V220.465Z" fill="white"/>
<path d="M187.796 211.289L183.107 208.589V207.567L187.796 210.267V211.289Z" fill="white"/>
<path d="M195.922 218.192L183.084 210.802V209.78L195.922 217.171V218.192Z" fill="white"/>
<path d="M190.978 217.572L183.234 213.114V212.092L190.978 216.55V217.572Z" fill="white"/>
<path d="M247.206 161.943L185.437 125.15C181.437 122.768 178.195 116.376 178.195 110.875C178.195 105.373 181.437 102.844 185.437 105.226L247.206 142.019C251.205 144.401 254.448 150.793 254.448 156.295C254.447 161.798 251.205 164.326 247.206 161.943Z" fill="#EFEFEF"/>
<path d="M252.927 152.679C252.927 147.177 249.685 140.785 245.685 138.403L183.916 101.61C182.055 100.501 180.363 100.468 179.081 101.291L179.086 101.272L176.044 103.105L177.443 103.267C176.955 104.317 176.673 105.657 176.673 107.258C176.673 112.76 179.916 119.152 183.916 121.534L245.684 158.327C246.466 158.793 247.218 159.065 247.923 159.17L247.548 160.448L250.549 158.643L250.524 158.644C251.997 157.696 252.927 155.617 252.927 152.679Z" fill="#D3008D"/>
<path d="M242.728 160.104L180.959 123.311C176.96 120.929 173.717 114.537 173.717 109.035C173.717 103.533 176.96 101.004 180.959 103.387L242.728 140.18C246.728 142.562 249.97 148.954 249.97 154.455C249.97 159.957 246.728 162.486 242.728 160.104Z" fill="#FF2C9C"/>
<path d="M243.342 139.767L181.573 102.974C179.538 101.762 177.702 101.827 176.386 102.902C177.634 102.246 179.224 102.353 180.959 103.387L242.728 140.18C246.728 142.562 249.97 148.954 249.97 154.455C249.97 157.158 249.185 159.137 247.915 160.176C249.544 159.319 250.584 157.159 250.584 154.043C250.584 148.541 247.342 142.15 243.342 139.767Z" fill="white"/>
<path d="M225.369 117.936L186.082 95.9143C181.976 93.6105 178.647 87.4291 178.647 82.1085C178.647 76.7879 181.976 74.3422 186.082 76.6461L225.369 98.6673C229.475 100.971 232.804 107.153 232.804 112.473C232.804 117.795 229.475 120.24 225.369 117.936Z" fill="#EFEFEF"/>
<path d="M230.929 108.958C230.929 103.637 227.6 97.4557 223.494 95.1518L184.206 73.1306C182.295 72.0583 180.558 72.0261 179.242 72.8216L179.247 72.8033L176.124 74.5762L177.56 74.7329C177.059 75.7486 176.77 77.0446 176.77 78.593C176.77 83.9136 180.099 90.0949 184.205 92.3988L223.493 114.42C224.296 114.871 225.067 115.134 225.791 115.235L225.407 116.47L228.487 114.725L228.462 114.726C229.973 113.81 230.929 111.8 230.929 108.958Z" fill="#5793CE"/>
<path d="M220.458 116.139L181.17 94.1178C177.064 91.814 173.735 85.6326 173.735 80.312C173.735 74.9914 177.064 72.5457 181.17 74.8496L220.458 96.8708C224.564 99.1747 227.893 105.356 227.893 110.677C227.893 115.997 224.565 118.443 220.458 116.139Z" fill="#D4ECFF"/>
<path d="M221.089 96.4722L181.8 74.4509C179.711 73.2785 177.826 73.3412 176.476 74.3813C177.756 73.7468 179.389 73.8495 181.17 74.8496L220.458 96.8708C224.564 99.1747 227.893 105.356 227.893 110.677C227.893 113.29 227.087 115.204 225.783 116.209C227.455 115.38 228.523 113.291 228.523 110.278C228.523 104.957 225.196 98.776 221.089 96.4722Z" fill="white"/>
<path d="M204.425 96.324L189.033 86.8485V85.665L204.425 95.1406V96.324Z" fill="#5793CE"/>
<path d="M216.655 103.844L205.911 97.2305V96.0471L216.655 102.662V103.844Z" fill="#5793CE"/>
<path d="M198.327 95.1542L189.033 89.4325V88.249L198.327 93.9716V95.1542Z" fill="#5793CE"/>
<path d="M204.425 98.9081L199.777 96.0472V94.8638L204.425 97.7246V98.9081Z" fill="#5793CE"/>
<path d="M238.849 148.585L223.457 139.932V138.852L238.849 147.504V148.585Z" fill="white"/>
<path d="M222.024 139.126L211.279 133.086V132.007L222.024 138.045V139.126Z" fill="white"/>
<path d="M232.753 147.516L223.457 142.292V141.212L232.753 146.437V147.516Z" fill="white"/>
<path d="M238.849 150.944L234.202 148.331V147.251L238.849 149.863V150.944Z" fill="white"/>
<path d="M222.023 141.469L217.376 138.857V137.777L222.023 140.389V141.469Z" fill="white"/>
<path d="M147.678 152.929L145.268 151.436L145.666 150.656L148.077 152.148L147.678 152.929Z" fill="#5793CE"/>
<path d="M143.142 150.12L143.54 149.341L142.624 148.774C142.498 149.04 142.39 149.313 142.269 149.581L143.142 150.12Z" fill="#5793CE"/>
<path d="M152.214 155.736L149.804 154.244L150.202 153.464L152.612 154.956L152.214 155.736Z" fill="#5793CE"/>
<path d="M156.75 158.544L154.34 157.052L154.738 156.272L157.148 157.764L156.75 158.544Z" fill="#5793CE"/>
<path d="M161.287 161.352L158.875 159.859L159.274 159.08L161.684 160.571L161.287 161.352Z" fill="#5793CE"/>
<path d="M165.823 164.159L163.412 162.668L163.809 161.887L166.221 163.38L165.823 164.159Z" fill="#5793CE"/>
<path d="M170.358 166.968L167.948 165.475L168.346 164.695L170.756 166.187L170.358 166.968Z" fill="#5793CE"/>
<path d="M174.894 169.775L172.484 168.283L172.882 167.503L175.292 168.995L174.894 169.775Z" fill="#5793CE"/>
<path d="M179.431 172.582L177.02 171.091L177.418 170.311L179.828 171.803L179.431 172.582Z" fill="#5793CE"/>
<path d="M191.503 159.217L189.138 157.76L189.621 157.055L191.503 158.214V159.217Z" fill="#5793CE"/>
<path d="M195.955 161.958L193.589 160.501V159.499L195.955 160.956V161.958Z" fill="#5793CE"/>
<path d="M200.407 164.7L198.041 163.243V162.24L200.407 163.697V164.7Z" fill="#5793CE"/>
<path d="M204.858 167.441L202.492 165.984V164.981L204.858 166.438V167.441Z" fill="#5793CE"/>
<path d="M209.31 170.182L206.944 168.725V167.723L209.31 169.18V170.182Z" fill="#5793CE"/>
<path d="M213.761 172.924L211.395 171.467V170.465L213.761 171.921V172.924Z" fill="#5793CE"/>
<path d="M210 132L201 126.272V125L210 130.729V132Z" fill="white"/>
</svg>
