<svg width="367" height="372" viewBox="0 0 367 372" fill="none" xmlns="http://www.w3.org/2000/svg">
<rect width="367" height="372" fill="white"/>
<path fill-rule="evenodd" clip-rule="evenodd" d="M184.299 182.021C184.299 183.944 182.734 185.508 180.811 185.508C178.888 185.508 177.324 183.944 177.324 182.021C177.324 180.097 178.888 178.533 180.811 178.533C182.734 178.533 184.299 180.097 184.299 182.021ZM182.253 182.021C182.253 181.225 181.607 180.578 180.811 180.578C180.016 180.578 179.369 181.225 179.369 182.021C179.369 182.816 180.016 183.463 180.811 183.463C181.607 183.463 182.253 182.816 182.253 182.021Z" fill="black"/>
<path fill-rule="evenodd" clip-rule="evenodd" d="M198.634 172H166.275C165.572 172 165 172.572 165 173.275V200.665C165 201.368 165.572 201.94 166.275 201.94H198.634C199.337 201.94 199.909 201.368 199.909 200.665V173.275C199.909 172.572 199.337 172 198.634 172ZM197.864 174.045V190.232L191.431 183.799C191.011 183.38 190.329 183.381 189.91 183.8L180.812 192.898L175 187.087C174.797 186.883 174.526 186.771 174.239 186.771C173.951 186.771 173.681 186.883 173.478 187.086L167.045 193.519V174.045H197.864ZM167.045 196.411V199.894H197.864V193.125L190.67 185.931L181.572 195.03C181.369 195.233 181.099 195.345 180.812 195.345C180.524 195.345 180.254 195.233 180.05 195.029L174.239 189.218L167.045 196.411Z" fill="black"/>
<path opacity="0.5" d="M203.36 253.729L120.975 205.777C119.675 205.02 119.675 203.128 120.975 202.372L198.936 157L286.025 207.691C287.325 208.447 287.325 210.339 286.025 211.096L212.769 253.729C209.858 255.424 206.271 255.423 203.36 253.729Z" fill="#173D7A"/>
<path d="M200.86 128.518C200.865 123.216 197.129 121.056 192.533 123.702L114.404 168.695C113.14 169.422 112.114 171.195 112.113 172.652C112.112 174.11 113.135 174.702 114.399 173.974L192.528 128.982C194.601 127.788 196.286 128.762 196.284 131.153L196.276 139.886C197.792 139.792 199.314 139.791 200.851 139.817L200.86 128.518Z" fill="#D4ECFF"/>
<path d="M114.37 189.678L192.499 161.222C197.096 158.575 200.839 152.108 200.844 146.806L200.85 139.817C199.314 139.791 197.792 139.792 196.276 139.886L196.267 149.441C196.265 151.833 194.577 154.749 192.504 155.943L114.375 184.399C113.111 185.126 112.086 186.898 112.084 188.356C112.083 189.813 113.106 190.405 114.37 189.678Z" fill="#5793CE"/>
<path d="M112.676 189.782L207.717 244.75L288.183 196.786L294.567 187.263L293.904 190.637L292.189 181.803L142.822 187.498L116.506 185.803L112.676 189.782Z" fill="#5793CE"/>
<path d="M115.827 173.195L115.802 184.888L207.658 238.004L210.14 226.86L115.827 173.195Z" fill="#86B8E0"/>
<path d="M293.383 178.044L198.493 123.173L112.94 172.9L112.763 174.121L207.793 229.073L293.383 178.044Z" fill="#D4ECFF"/>
<path d="M263.132 206.221L285.443 192.994C287.322 191.673 288.796 189.005 288.798 186.774L288.815 185.023C288.816 183.606 288.222 182.692 287.309 182.426L243.39 206.847L207.625 226.181L207.658 238.004L263.132 206.221Z" fill="white"/>
<path d="M210.832 227.261L116.544 172.738L114.546 171.583L112.72 170.527C112.347 171.212 112.113 171.966 112.112 172.652C112.112 173.369 112.36 173.873 112.763 174.117L112.763 174.121L112.778 174.13L112.785 174.134L207.792 229.073L210.832 227.261Z" fill="#5793CE"/>
<path d="M206.532 244.064L207.717 244.75L207.935 244.372L207.197 243.792L206.532 244.064Z" fill="white"/>
<path d="M206.562 228.359L207.776 229.061L207.472 228.399L206.562 228.359Z" fill="white"/>
<path d="M209.432 223.646L287.561 178.654C292.158 176.007 295.894 178.167 295.889 183.469L295.872 185.221C295.867 190.523 292.124 196.99 287.528 199.637L209.399 244.629C208.135 245.356 207.111 244.764 207.113 243.307C207.114 241.849 208.14 240.078 209.403 239.35L287.532 194.358C289.606 193.164 291.294 190.248 291.296 187.856L291.312 186.105C291.315 183.713 289.63 182.739 287.557 183.933L209.428 228.925C208.164 229.653 207.14 229.061 207.142 227.604C207.143 226.145 208.169 224.374 209.432 223.646Z" fill="#D4ECFF"/>
<path d="M174.636 180.025L215.235 156.645L250.446 177.006L209.847 200.386L174.636 180.025Z" fill="white"/>
<path d="M207.113 243.307C207.114 241.849 208.14 240.078 209.403 239.35L287.532 194.358C289.606 193.164 291.294 190.248 291.296 187.856L291.312 186.105C291.314 184.539 290.589 183.587 289.51 183.447C289.858 183.903 290.062 184.556 290.061 185.381L290.044 187.133C290.042 189.525 288.354 192.441 286.281 193.634L208.152 238.626C206.888 239.354 205.862 241.126 205.861 242.584C205.86 243.688 206.448 244.292 207.283 244.205C207.175 243.959 207.113 243.66 207.113 243.307Z" fill="white"/>
<path d="M207.142 227.603C207.143 226.146 208.169 224.374 209.432 223.646L287.561 178.653C289.541 177.513 291.359 177.269 292.789 177.78C291.261 176.478 288.926 176.422 286.31 177.929L208.181 222.921C206.917 223.649 205.891 225.421 205.89 226.879C205.889 227.983 206.477 228.587 207.312 228.5C207.203 228.256 207.142 227.956 207.142 227.603Z" fill="white"/>
<path opacity="0.5" d="M73.9006 200.177L52.4661 187.815C51.1506 187.056 51.3155 185.731 52.8345 184.855L73.5315 172.918C75.0506 172.043 77.3482 171.947 78.6637 172.706L100.098 185.068C101.414 185.827 101.249 187.152 99.7298 188.028L79.0327 199.964C77.5143 200.841 75.2161 200.936 73.9006 200.177Z" fill="#173D7A"/>
<path d="M100.98 179.091V171.703L84.3958 171.694L78.6637 168.388C77.3482 167.629 75.0506 167.724 73.5316 168.6L68.1833 171.684L51.5845 171.675V179.273C51.547 179.787 51.8339 180.282 52.4661 180.646L73.9006 193.009C75.2161 193.767 77.5143 193.672 79.0327 192.796L99.7298 180.86C100.607 180.355 101.029 179.7 100.98 179.091Z" fill="#396CAA"/>
<path d="M76.2827 167.88C75.3202 167.903 74.3208 168.146 73.5316 168.601L68.1833 171.685L51.5845 171.676V179.274C51.547 179.787 51.8339 180.283 52.4661 180.647L73.9006 193.009C74.5327 193.374 75.3923 193.539 76.2827 193.518V167.88Z" fill="#396CAA"/>
<path d="M53.4631 171.677L51.5845 171.676V179.274C51.547 179.787 51.8339 180.283 52.4661 180.647L53.4631 181.222V171.677Z" fill="#5793CE"/>
<path d="M74.231 193.171C75.3655 193.657 77.0066 193.629 78.3339 193.124V184.497H74.231V193.171Z" fill="#5793CE"/>
<path d="M73.9006 185.439L52.4661 173.077C51.1506 172.319 51.3155 170.993 52.8345 170.117L73.5315 158.181C75.0506 157.305 77.3482 157.21 78.6637 157.969L100.098 170.331C101.414 171.09 101.249 172.415 99.7298 173.291L79.0327 185.227C77.5143 186.102 75.2161 186.198 73.9006 185.439Z" fill="#D4ECFF"/>
<path d="M99.7304 171.836L79.0333 183.773C77.5143 184.649 75.2167 184.744 73.9012 183.985L52.4667 171.623C52.1732 171.453 51.9577 171.255 51.8101 171.041C51.3583 171.767 51.5631 172.555 52.4667 173.077L73.9012 185.439C75.2167 186.198 77.5149 186.102 79.0333 185.227L99.7304 173.29C100.911 172.609 101.269 171.659 100.755 170.912C100.549 171.243 100.206 171.562 99.7304 171.836Z" fill="white"/>
<path d="M93.0958 181.041C93.0958 181.592 92.7083 182.263 92.2304 182.538C91.7524 182.814 91.3649 182.591 91.3649 182.039C91.3649 181.488 91.7524 180.817 92.2304 180.541C92.7083 180.266 93.0958 180.489 93.0958 181.041Z" fill="#D4ECFF"/>
<path d="M95.8815 179.435C95.8815 179.986 95.494 180.657 95.0161 180.932C94.5381 181.208 94.1506 180.985 94.1506 180.433C94.1506 179.882 94.5381 179.211 95.0161 178.935C95.494 178.659 95.8815 178.883 95.8815 179.435Z" fill="#D4ECFF"/>
<path d="M98.6673 177.828C98.6673 178.38 98.2798 179.05 97.8018 179.326C97.3238 179.602 96.9363 179.378 96.9363 178.826C96.9363 178.275 97.3238 177.604 97.8018 177.329C98.2792 177.053 98.6673 177.276 98.6673 177.828Z" fill="#D4ECFF"/>
<path d="M75.1685 177.775L65.1381 171.99C64.5226 171.635 64.6 171.015 65.3107 170.604L74.9958 165.019C75.7065 164.609 76.7821 164.564 77.3976 164.919L87.428 170.704C88.0435 171.059 87.9667 171.679 87.2554 172.09L77.5702 177.675C76.8589 178.086 75.7839 178.13 75.1685 177.775Z" fill="#5793CE"/>
<path d="M76.1286 172.931L74.7411 172.131C74.656 172.081 74.6667 171.996 74.7649 171.939L76.1048 171.166C76.203 171.11 76.3518 171.103 76.4369 171.153L77.8244 171.953C77.9095 172.002 77.8988 172.088 77.8006 172.144L76.4607 172.917C76.3625 172.974 76.2137 172.98 76.1286 172.931Z" fill="#D4ECFF"/>
<path d="M65.1381 171.99L65.1667 172.006C65.2131 171.973 65.2565 171.938 65.3107 171.907L74.9958 166.321C75.7065 165.911 76.7821 165.867 77.3976 166.222L87.3994 171.99C87.9667 171.585 87.9964 171.032 87.428 170.704L77.3976 164.919C76.7821 164.564 75.7065 164.609 74.9958 165.019L65.3107 170.604C64.5994 171.015 64.522 171.635 65.1381 171.99Z" fill="#396CAA"/>
<path opacity="0.5" d="M261.744 272.07L240.31 259.708C238.994 258.95 239.159 257.624 240.678 256.749L261.375 244.812C262.894 243.936 265.192 243.841 266.507 244.6L287.942 256.961C289.257 257.72 289.092 259.045 287.573 259.921L266.876 271.858C265.357 272.734 263.06 272.829 261.744 272.07Z" fill="#173D7A"/>
<path d="M288.823 250.985V243.597L272.239 243.587L266.507 240.281C265.192 239.523 262.894 239.618 261.375 240.494L256.027 243.578L239.428 243.569V251.167C239.39 251.681 239.677 252.176 240.31 252.541L261.744 264.903C263.06 265.661 265.358 265.566 266.877 264.691L287.574 252.754C288.449 252.248 288.872 251.593 288.823 250.985Z" fill="#396CAA"/>
<path d="M264.126 239.773C263.163 239.796 262.164 240.039 261.374 240.493L256.026 243.578L239.427 243.568V251.166C239.39 251.68 239.677 252.175 240.309 252.54L261.743 264.902C262.376 265.267 263.235 265.432 264.126 265.411V239.773Z" fill="#396CAA"/>
<path d="M241.307 243.57L239.428 243.569V251.167C239.39 251.681 239.677 252.176 240.31 252.541L241.307 253.116V243.57Z" fill="#5793CE"/>
<path d="M262.074 265.064C263.208 265.55 264.85 265.522 266.177 265.017V256.39H262.074V265.064Z" fill="#5793CE"/>
<path d="M261.744 257.332L240.31 244.97C238.994 244.211 239.159 242.886 240.678 242.01L261.375 230.073C262.894 229.197 265.192 229.102 266.507 229.861L287.942 242.223C289.257 242.981 289.092 244.307 287.573 245.182L266.876 257.119C265.357 257.995 263.06 258.091 261.744 257.332Z" fill="#D4ECFF"/>
<path d="M287.573 243.729L266.876 255.666C265.357 256.542 263.06 256.637 261.744 255.878L240.31 243.516C240.016 243.347 239.801 243.148 239.653 242.934C239.201 243.661 239.406 244.449 240.31 244.97L261.744 257.332C263.06 258.091 265.358 257.996 266.876 257.12L287.573 245.183C288.754 244.502 289.112 243.551 288.598 242.805C288.392 243.136 288.049 243.455 287.573 243.729Z" fill="white"/>
<path d="M280.939 252.934C280.939 253.485 280.552 254.155 280.074 254.431C279.596 254.707 279.208 254.484 279.208 253.932C279.208 253.381 279.596 252.71 280.074 252.434C280.551 252.159 280.939 252.382 280.939 252.934Z" fill="#D4ECFF"/>
<path d="M283.724 251.328C283.724 251.879 283.337 252.55 282.858 252.825C282.38 253.101 281.992 252.878 281.992 252.326C281.992 251.774 282.38 251.104 282.858 250.828C283.337 250.552 283.724 250.776 283.724 251.328Z" fill="#D4ECFF"/>
<path d="M286.51 249.721C286.51 250.272 286.123 250.943 285.645 251.219C285.167 251.495 284.779 251.271 284.779 250.719C284.779 250.168 285.166 249.497 285.645 249.222C286.123 248.946 286.51 249.169 286.51 249.721Z" fill="#D4ECFF"/>
<path d="M263.011 249.667L252.981 243.883C252.365 243.528 252.442 242.908 253.154 242.498L262.839 236.912C263.549 236.502 264.625 236.458 265.24 236.813L275.271 242.598C275.886 242.953 275.81 243.573 275.098 243.983L265.413 249.568C264.702 249.978 263.627 250.022 263.011 249.667Z" fill="#5793CE"/>
<path d="M263.971 244.824L262.584 244.024C262.499 243.974 262.51 243.889 262.608 243.832L263.948 243.059C264.046 243.003 264.195 242.996 264.28 243.046L265.667 243.846C265.752 243.895 265.742 243.981 265.643 244.037L264.304 244.81C264.205 244.867 264.057 244.873 263.971 244.824Z" fill="#D4ECFF"/>
<path d="M252.981 243.883L253.01 243.899C253.056 243.865 253.099 243.831 253.154 243.799L262.839 238.214C263.549 237.804 264.625 237.76 265.24 238.115L275.242 243.883C275.81 243.477 275.839 242.925 275.271 242.597L265.24 236.812C264.625 236.457 263.549 236.501 262.839 236.911L253.154 242.497C252.442 242.908 252.365 243.528 252.981 243.883Z" fill="#396CAA"/>
<path opacity="0.5" d="M92.2303 222.709C93.8701 221.764 96.5289 221.764 98.1692 222.709L174.77 266.869C176.41 267.814 176.41 269.346 174.77 270.291C173.13 271.236 170.471 271.236 168.831 270.291L92.2303 226.131C90.5899 225.186 90.5899 223.654 92.2303 222.709Z" fill="#173D7A"/>
<path d="M84.5652 205.381C84.6314 205.268 84.7619 205.211 84.8895 205.238L89.0606 206.145L87.4181 208.947L84.5989 205.734C84.5127 205.636 84.4997 205.493 84.5652 205.381Z" fill="#D4ECFF"/>
<path d="M86.2102 207.448C86.2149 206.844 86.6431 206.114 87.1664 205.817C87.4086 205.679 87.626 205.663 87.7919 205.739C92.6116 205.7 97.3521 206.972 101.507 209.421L101.808 209.599L96.6279 218.436L95.0982 217.419C91.8603 215.266 89.1315 212.43 87.1026 209.107L86.4476 208.035C86.3 207.926 86.2078 207.727 86.2102 207.448Z" fill="#FF2C9C"/>
<path d="M101.77 215.521C103.201 213.081 103.222 210.431 101.816 209.603C100.411 208.775 98.1122 210.081 96.6815 212.522C95.2508 214.962 95.2302 217.612 96.6355 218.44C98.0407 219.268 100.34 217.962 101.77 215.521Z" fill="#D4ECFF"/>
<path d="M127.375 237.642L96.628 218.435L101.809 209.598L133.496 227.2L127.375 237.642Z" fill="#D4ECFF"/>
<path d="M126.145 234.86C126.167 232.129 128.105 228.823 130.474 227.476C132.843 226.129 134.746 227.251 134.725 229.982C134.704 232.712 132.766 236.018 130.397 237.366C128.028 238.713 126.124 237.591 126.145 234.86Z" fill="#D4ECFF"/>
<path d="M127.9 235.894C127.921 233.163 129.859 229.857 132.228 228.51C134.597 227.163 136.501 228.285 136.479 231.016C136.458 233.746 134.52 237.052 132.15 238.4C129.782 239.746 127.878 238.625 127.9 235.894Z" fill="#D4ECFF"/>
<path d="M129.122 238.668L135.243 228.226L175.92 252.199L169.799 262.641L129.122 238.668Z" fill="#D4ECFF"/>
<path d="M168.577 259.868C168.598 257.137 170.536 253.831 172.905 252.484C175.275 251.137 177.178 252.259 177.157 254.99C177.136 257.721 175.198 261.026 172.829 262.374C170.459 263.721 168.556 262.599 168.577 259.868Z" fill="#D4ECFF"/>
<path d="M170.112 258.995C170.206 257.383 171.515 255.375 173.037 254.511C174.558 253.646 175.715 254.251 175.621 255.863C175.527 257.475 174.218 259.483 172.697 260.348C171.176 261.213 170.019 260.607 170.112 258.995Z" fill="#396CAA"/>
<path d="M125.836 234.677C125.858 231.947 127.796 228.641 130.165 227.294C131.12 226.752 131.995 226.615 132.703 226.818C131.934 226.012 130.673 225.917 129.237 226.733C126.867 228.081 124.929 231.386 124.908 234.117C124.896 235.748 125.572 236.799 126.621 237.098C126.122 236.575 125.828 235.754 125.836 234.677Z" fill="white"/>
<path d="M125.836 234.678C125.858 231.947 127.796 228.641 130.165 227.294C131.35 226.621 132.418 226.564 133.187 227.018L135.492 228.377L134.394 230.25C134.193 232.734 132.536 235.562 130.469 236.945L129.371 238.819L127.066 237.461C126.297 237.006 125.826 236.043 125.836 234.678Z" fill="#FF2C9C"/>
<path d="M128.141 236.036C128.162 233.305 130.1 229.999 132.47 228.653C134.839 227.305 136.743 228.427 136.721 231.158C136.7 233.889 134.762 237.195 132.393 238.542C130.024 239.888 128.12 238.767 128.141 236.036Z" fill="#D4ECFF"/>
<path d="M171.497 259.007C171.506 257.828 172.342 256.402 173.364 255.821C174.387 255.24 175.208 255.724 175.199 256.903C175.189 258.081 174.354 259.507 173.331 260.088C172.309 260.669 171.488 260.185 171.497 259.007Z" fill="#FF2C9C"/>
<path d="M171.497 259.007C171.506 257.828 172.342 256.402 173.364 255.821C173.876 255.531 174.337 255.506 174.668 255.702L183.29 260.784C184.531 261.515 184.946 263.116 184.216 264.36C183.487 265.604 181.89 266.02 180.649 265.289L172.027 260.207C171.695 260.012 171.492 259.596 171.497 259.007Z" fill="#FF2C9C"/>
<path d="M161.914 243.104L163.206 242.368C163.949 241.946 164.932 242.051 165.972 242.665L170.403 245.276C171.239 245.769 171.914 246.961 171.906 247.934L171.889 250.157C171.886 250.53 172.068 250.958 172.335 251.274L172.169 252.304L173.273 251.67L173.271 251.669C173.43 251.587 173.533 251.401 173.534 251.127L173.552 248.904C173.568 246.876 172.161 244.389 170.418 243.362L165.987 240.751C164.507 239.878 163.11 239.729 162.054 240.329L160.761 241.065C160.019 241.486 159.037 241.381 157.995 240.768L140.136 230.242C139.906 230.106 139.696 230.095 139.546 230.185V230.183L138.444 230.816L139.388 231.18C139.518 231.578 139.796 231.964 140.121 232.156L157.98 242.682C159.461 243.554 160.858 243.704 161.914 243.104Z" fill="#5793CE"/>
<path d="M162.088 243.011C162.831 242.589 163.813 242.694 164.853 243.307L169.284 245.919C170.12 246.411 170.794 247.603 170.787 248.576L170.77 250.8C170.765 251.329 171.131 251.975 171.585 252.242C172.04 252.51 172.412 252.299 172.416 251.77L172.433 249.547C172.449 247.519 171.043 245.033 169.299 244.005L164.869 241.394C163.388 240.521 161.991 240.372 160.935 240.972L159.643 241.708C158.9 242.129 157.918 242.025 156.877 241.411L139.017 230.885C138.563 230.618 138.191 230.829 138.187 231.357C138.183 231.886 138.548 232.532 139.002 232.799L156.862 243.325C158.342 244.197 159.739 244.347 160.795 243.747L162.088 243.011Z" fill="#5793CE"/>
<path d="M170.842 248.944L170.825 251.167C170.825 251.181 170.832 251.197 170.832 251.212C170.791 251.072 170.769 250.932 170.77 250.8L170.787 248.576C170.787 248.513 170.777 248.447 170.772 248.382C170.815 248.573 170.844 248.762 170.842 248.944Z" fill="white"/>
<path opacity="0.5" d="M191 151.913L239.715 180L269 163.116L220.335 135L191 151.913Z" fill="#173D7A"/>
<path d="M283.335 135.711L276.9 132.012L300.628 118.372C301.748 117.728 301.748 116.68 300.628 116.036L276.388 102.102C275.267 101.457 273.444 101.457 272.323 102.102L248.595 115.741L242.16 112.042L265.888 98.4023C270.557 95.7183 278.154 95.7183 282.824 98.4023L307.064 112.336C311.733 115.02 311.733 119.388 307.064 122.072L283.335 135.711Z" fill="#FF2C9C"/>
<path d="M293.72 137.34C293.72 133.914 291.628 129.935 289.047 128.451L246.057 103.739C244.901 103.075 243.846 103.028 243.03 103.482L243.028 103.48L191.698 133.178L241.335 170.419L291.905 141.196C292.061 141.125 292.212 141.043 292.352 140.937L292.352 140.937C293.198 140.3 293.72 139.051 293.72 137.34Z" fill="#D4ECFF"/>
<path d="M241.335 170.419L291.905 141.196C292.061 141.125 292.212 141.043 292.352 140.938L292.352 140.937C293.197 140.301 293.719 139.051 293.719 137.34C293.719 135.705 293.239 133.946 292.46 132.39L234.814 165.527L241.335 170.419Z" fill="#396CAA"/>
<path d="M238.103 170.287L195.112 145.574C192.532 144.091 190.44 140.112 190.44 136.687C190.44 133.261 192.532 131.686 195.112 133.17L238.103 157.882C240.683 159.366 242.775 163.345 242.775 166.77C242.775 170.196 240.683 171.77 238.103 170.287Z" fill="#5793CE"/>
<path d="M238.62 157.648L195.629 132.935C194.443 132.254 193.363 132.224 192.539 132.718C193.277 132.495 194.161 132.623 195.112 133.17L238.103 157.882C240.683 159.366 242.775 163.345 242.775 166.77V166.771C242.775 168.621 242.161 169.925 241.193 170.505C242.458 170.121 243.293 168.699 243.293 166.537V166.536C243.292 163.111 241.201 159.132 238.62 157.648Z" fill="white"/>
<path d="M231.664 161.953L226.495 158.984C225.981 158.688 225.564 157.895 225.564 157.212C225.564 156.53 225.981 156.215 226.495 156.511L231.664 159.48C232.178 159.776 232.595 160.569 232.595 161.252C232.595 161.934 232.178 162.248 231.664 161.953Z" fill="white"/>
<path d="M237.493 126.816C239.052 125.898 239.037 124.436 237.459 123.551C235.88 122.666 233.338 122.692 231.778 123.61C230.219 124.528 230.234 125.99 231.813 126.875C233.391 127.76 235.934 127.734 237.493 126.816Z" fill="#5793CE"/>
<path d="M246.15 131.672C247.709 130.755 247.694 129.292 246.116 128.407C244.537 127.522 241.994 127.548 240.435 128.466C238.876 129.384 238.891 130.846 240.469 131.731C242.047 132.617 244.591 132.591 246.15 131.672Z" fill="white"/>
<path d="M254.806 136.529C256.366 135.611 256.35 134.149 254.772 133.264C253.193 132.379 250.651 132.405 249.091 133.323C247.532 134.241 247.547 135.703 249.126 136.588C250.704 137.474 253.247 137.447 254.806 136.529Z" fill="white"/>
<path d="M142.453 207.416C142.453 207.416 140.244 206.298 138.888 207.962C137.531 209.626 135.593 213.554 135.533 216.208C135.473 218.862 137.626 218.683 138.907 218.055C140.187 217.426 143.926 211.984 144.153 210.918C144.38 209.852 143.886 208.41 143.527 208.128C143.165 207.845 142.453 207.416 142.453 207.416Z" fill="#FF2C9C"/>
<path d="M142.935 206.882L143.037 209.177C143.059 209.665 142.814 210.131 142.39 210.372C142.004 210.591 141.444 210.759 140.687 210.638C139.023 210.369 138.874 209.892 138.756 207.597C138.636 205.302 142.935 206.882 142.935 206.882Z" fill="#D4ECFF"/>
<path d="M134.368 203.002C134.368 203.002 132.159 201.884 130.803 203.548C129.446 205.212 127.507 209.139 127.447 211.794C127.387 214.448 129.541 214.269 130.821 213.64C132.101 213.012 135.841 207.57 136.068 206.504C136.294 205.437 135.801 203.996 135.441 203.714C135.081 203.431 134.368 203.002 134.368 203.002Z" fill="#FF2C9C"/>
<path d="M134.849 202.468L134.952 204.764C134.974 205.252 134.729 205.717 134.305 205.958C133.919 206.178 133.359 206.346 132.602 206.224C130.938 205.956 130.789 205.479 130.67 203.184C130.552 200.888 134.849 202.468 134.849 202.468Z" fill="#D4ECFF"/>
<path d="M154.557 160.324C153.904 149.654 143.039 161.895 143.039 161.895L135.603 169.206L128.907 176.586C127.599 178.027 126.99 179.973 127.243 181.905L129.952 202.597C130.086 203.619 130.958 204.373 131.985 204.364C132.275 204.362 132.607 204.335 132.989 204.276C135.405 203.899 135.227 201.594 135.227 201.594L134.732 182.241L148.794 173.736C148.794 173.736 155.211 170.995 154.557 160.324Z" fill="#173D7A"/>
<path d="M162.642 164.39C161.988 153.72 151.123 165.96 151.123 165.96L143.687 173.272L136.991 180.651C135.683 182.092 135.074 184.038 135.327 185.97L138.036 206.662C138.17 207.684 139.042 208.438 140.069 208.43C140.359 208.427 140.691 208.401 141.073 208.342C143.489 207.964 143.311 205.66 143.311 205.66L142.83 186.863L156.879 177.802C156.878 177.802 163.296 175.06 162.642 164.39Z" fill="#173D7A"/>
<path d="M156.214 130.139C164.452 133.565 164.287 138.45 164.287 138.45C164.287 138.45 162.673 156.357 163.224 168.317C163.454 173.317 136.745 173.698 140.728 160.36C145.424 144.633 143.664 131.901 145.863 129.981C148.061 128.06 154.083 129.253 156.214 130.139Z" fill="#FF2C9C"/>
<path d="M158.865 134.47C158.434 136.147 156.243 137.032 153.97 136.445C151.698 135.857 150.205 134.021 150.636 132.344C151.067 130.666 153.258 129.782 155.531 130.369C157.803 130.956 159.295 132.792 158.865 134.47Z" fill="#FFC2B0"/>
<path d="M155.566 136.481L154.05 138.132C153.854 138.347 153.76 138.636 153.793 138.925L154.835 147.964C154.864 148.217 154.794 148.472 154.64 148.675L151.379 152.954C151.235 153.144 150.937 153.092 150.865 152.864L149.089 147.259C149.022 147.047 149.029 146.818 149.108 146.61L152.231 138.401C152.299 138.222 152.314 138.026 152.275 137.837L151.818 135.661L155.566 136.481Z" fill="white"/>
<path fill-rule="evenodd" clip-rule="evenodd" d="M153.871 136.828C154.375 136.958 154.882 137.022 155.376 137.022C156.04 137.022 156.68 136.905 157.254 136.674C158.298 136.253 159.005 135.505 159.246 134.569C159.486 133.633 159.227 132.636 158.516 131.761C157.833 130.922 156.808 130.292 155.628 129.987C154.448 129.683 153.247 129.737 152.246 130.141C151.202 130.562 150.495 131.31 150.255 132.246C150.014 133.182 150.273 134.178 150.984 135.053C151.666 135.893 152.692 136.523 153.871 136.828ZM152.539 130.874C153.021 130.679 153.56 130.582 154.123 130.582C154.55 130.582 154.992 130.638 155.431 130.752C156.449 131.015 157.328 131.551 157.905 132.26C158.453 132.935 158.659 133.684 158.482 134.371C158.306 135.058 157.765 135.615 156.96 135.94C156.113 136.283 155.085 136.325 154.067 136.062C153.05 135.798 152.171 135.263 151.593 134.553C151.046 133.879 150.84 133.129 151.017 132.442C151.193 131.755 151.734 131.199 152.539 130.874Z" fill="white"/>
<path d="M152.912 129.766C152.912 129.766 152.983 130.098 152.84 132.716C152.796 133.539 155.669 134.309 156.412 133.563C157.155 132.818 156.858 132.044 157.036 129.242C157.213 126.44 152.912 129.766 152.912 129.766Z" fill="#FFC2B0"/>
<path d="M157.035 129.241C157.035 129.241 156.328 131.839 152.839 132.835L152.892 130.475L157.035 129.241Z" fill="#EA9C92"/>
<path d="M158.981 126.623C160.294 123.367 158.727 119.659 155.481 118.342C152.235 117.024 148.539 118.596 147.226 121.853C145.913 125.109 147.48 128.817 150.726 130.134C153.972 131.451 157.668 129.879 158.981 126.623Z" fill="#FFC2B0"/>
<path d="M154.563 124.468C154.563 124.468 151.072 125.968 148.655 125.985C146.237 126.002 146.77 123.972 146.77 123.972L153.946 122.932L154.563 124.468Z" fill="#EA9C92"/>
<path d="M147.934 124.863C147.934 124.863 150.975 123.568 153.643 124.108C154.27 124.235 154.851 124.571 155.255 125.069C155.387 125.232 155.554 125.38 155.743 125.423C156.216 125.531 156.99 123.562 157.91 123.517C158.829 123.472 159.443 124.125 158.689 125.336C157.935 126.546 158.19 127.902 158.537 128.096C158.884 128.29 163.178 125.284 159.932 118.834C156.687 112.384 147.828 116.037 146.545 117.344C146.545 117.344 145.194 118.525 144.096 117.474C144.096 117.474 142.864 126.728 147.934 124.863Z" fill="#D4ECFF"/>
<path d="M159.666 151.533V156.372C159.666 156.926 159.433 157.455 159.024 157.828L149.115 166.891L150.241 168.618L163.893 159.639C164.503 159.195 164.898 158.511 164.976 157.758L165.91 148.779L159.666 151.533Z" fill="#FFC2B0"/>
<path d="M163.589 136.03C163.589 136.03 166.595 140.565 167.715 152.503C167.715 152.503 162.58 154.17 159.666 153.224C156.751 152.278 163.589 136.03 163.589 136.03Z" fill="#FF2C9C"/>
<path d="M159.117 141.764C159.117 141.764 157.94 148.083 157.873 151.053C157.854 151.869 158.351 152.605 159.117 152.883V141.764Z" fill="#D3008D"/>
<path d="M156.546 173.183L154.356 172.893L140.218 164.705C139.765 164.443 138.974 164.475 138.45 164.778L128.432 170.578L127.108 170.402V171.725H127.109C127.101 171.899 127.199 172.066 127.413 172.191L143.435 181.47C143.889 181.733 144.68 181.7 145.204 181.397L156.113 175.08C156.408 174.91 156.554 174.69 156.546 174.484V173.183H156.546Z" fill="#5793CE"/>
<path d="M145.923 168.009L144.919 167.428H133.876L128.432 170.579L127.108 170.403V171.726H127.109C127.101 171.9 127.199 172.067 127.413 172.191L143.435 181.471C143.675 181.61 144.009 181.665 144.348 181.642L145.923 168.009Z" fill="#396CAA"/>
<path d="M127.695 170.481L127.108 170.403V171.726H127.109C127.1 171.9 127.199 172.067 127.413 172.191L127.695 172.355V170.481H127.695Z" fill="#5793CE"/>
<path d="M143.597 181.546C144.026 181.71 144.64 181.674 145.099 181.453V179.203H143.597V181.546Z" fill="#5793CE"/>
<path d="M143.435 180.149L127.413 170.87C126.96 170.607 127.017 170.149 127.541 169.846L138.45 163.529C138.973 163.226 139.765 163.193 140.218 163.455L156.24 172.735C156.693 172.997 156.637 173.456 156.113 173.759L145.204 180.076C144.68 180.379 143.888 180.412 143.435 180.149Z" fill="white"/>
<path d="M143.164 178.743L129.842 171.026C129.465 170.808 129.512 170.427 129.947 170.175L135.794 166.877C136.229 166.625 136.887 166.598 137.264 166.816L150.586 174.532C150.963 174.75 150.916 175.131 150.481 175.383L144.635 178.681C144.199 178.933 143.541 178.961 143.164 178.743Z" fill="#D4ECFF"/>
<path d="M139.069 163.224L138.904 164.333C138.762 165.278 138.787 166.241 138.976 167.177L139.173 168.154C139.284 168.705 139.719 169.133 140.27 169.234C140.701 169.312 141.108 169.008 141.157 168.572L141.421 166.201C141.421 166.201 142.026 166.996 142.318 166.996C142.609 166.996 141.991 164.622 141.331 163.278C140.671 161.935 139.069 163.224 139.069 163.224Z" fill="#FFC2B0"/>
<path d="M144.5 145.599L142.781 149.012C142.374 149.819 142.135 150.7 142.077 151.603L141.331 163.279L139.069 163.225L138.043 150.113C138.011 149.708 138.031 149.301 138.101 148.901L139.274 142.252L144.5 145.599Z" fill="#FFC2B0"/>
<path d="M142.893 181.041L141.549 179.281L127.422 171.076C126.969 170.813 126.602 170.108 126.603 169.502L126.615 157.899L125.803 156.835L126.566 156.392L126.567 156.393C126.713 156.299 126.907 156.301 127.121 156.425L143.131 165.724C143.584 165.987 143.951 166.692 143.95 167.298L143.936 179.935C143.936 180.276 143.819 180.514 143.637 180.609L142.893 181.041Z" fill="#173D7A"/>
<path d="M133.123 174.387L132.119 173.804L126.609 164.203L126.615 157.898L125.803 156.835L126.566 156.391L126.567 156.393C126.713 156.298 126.907 156.3 127.121 156.424L143.131 165.724C143.37 165.862 143.585 166.125 143.735 166.432L133.123 174.387Z" fill="#396CAA"/>
<path d="M126.163 157.307L125.803 156.835L126.566 156.392L126.567 156.393C126.713 156.299 126.907 156.301 127.121 156.425L127.403 156.589L126.163 157.307Z" fill="#5793CE"/>
<path d="M143.277 165.826C143.633 166.118 143.908 166.67 143.945 167.179L142.381 168.085L141.631 166.78L143.277 165.826Z" fill="#274F89"/>
<path d="M142.369 166.167L126.358 156.868C125.905 156.605 125.538 156.883 125.537 157.489L125.523 170.125C125.522 170.732 125.889 171.437 126.342 171.699L142.353 180.999C142.806 181.262 143.173 180.983 143.174 180.378L143.188 167.741C143.188 167.135 142.822 166.43 142.369 166.167Z" fill="#5793CE"/>
<path d="M150.241 168.618L149.984 169.151C149.689 169.765 149.224 170.282 148.646 170.639L147.055 171.623C146.561 171.929 145.934 171.954 145.432 171.66C145.414 171.65 145.396 171.639 145.378 171.628C144.872 171.31 144.827 170.582 145.242 170.154L146.904 168.44C146.904 168.44 145.97 169.157 145.709 168.868C145.517 168.656 146.614 167.623 147.457 167.589C148.299 167.555 149.114 166.891 149.114 166.891L150.241 168.618Z" fill="#FFC2B0"/>
<path d="M146.028 129.956C146.028 129.956 139.935 136.606 137.478 142.707C137.478 142.707 139.561 146.472 144.66 147.949C149.76 149.426 146.028 129.956 146.028 129.956Z" fill="#FF2C9C"/>
<path d="M143.513 147.554L144.5 137.985L142.173 146.951C142.588 147.168 143.037 147.369 143.513 147.554Z" fill="#D3008D"/>
<path d="M150.59 128.613L148.953 128.162C148.953 128.162 149.735 129.395 150.876 129.709C152.017 130.024 152.194 129.055 152.194 129.055L150.59 128.613Z" fill="white"/>
<path d="M159.335 125.985C159.335 126.49 158.926 126.9 158.423 126.9C157.919 126.9 157.511 126.49 157.511 125.985C157.511 125.48 157.919 125.07 158.423 125.07C158.926 125.07 159.335 125.48 159.335 125.985Z" fill="white"/>
<path opacity="0.5" d="M210.428 211.944C219.762 211.944 227.329 207.558 227.329 202.148C227.329 196.738 219.762 192.353 210.428 192.353C201.094 192.353 193.527 196.738 193.527 202.148C193.527 207.558 201.094 211.944 210.428 211.944Z" fill="#173D7A"/>
<path d="M229.655 193.77V188.351H228.636C227.721 186.769 226.197 185.279 224.024 184.02C216.514 179.667 204.34 179.667 196.831 184.02C194.658 185.279 193.134 186.769 192.218 188.351H191.201V193.741H191.202C191.189 196.603 193.064 199.468 196.832 201.651C204.341 206.004 216.515 206.004 224.024 201.652C227.779 199.475 229.656 196.623 229.655 193.77Z" fill="#FF2C9C"/>
<path d="M210.428 199.495C221.047 199.495 229.656 194.505 229.656 188.35C229.656 182.195 221.047 177.205 210.428 177.205C199.808 177.205 191.2 182.195 191.2 188.35C191.2 194.505 199.808 199.495 210.428 199.495Z" fill="#FF2C9C"/>
<path d="M224.024 196.231C216.515 200.583 204.341 200.583 196.832 196.231C193.233 194.145 191.378 191.438 191.229 188.705C191.066 191.674 192.921 194.674 196.832 196.941C204.341 201.293 216.515 201.293 224.024 196.941C227.934 194.674 229.789 191.675 229.627 188.705C229.477 191.438 227.623 194.145 224.024 196.231Z" fill="white"/>
<path d="M201.16 192.04C200.837 191.852 200.652 191.597 200.654 191.329L200.673 184.068C200.674 183.514 201.451 183.066 202.406 183.066C203.362 183.066 204.134 183.517 204.134 184.071L204.118 190.092L221.525 187.953C222.46 187.838 223.378 188.184 223.577 188.726C223.775 189.267 223.178 189.8 222.243 189.915L202.744 192.312C202.232 192.375 201.7 192.301 201.294 192.11C201.247 192.088 201.202 192.065 201.16 192.04Z" fill="white"/>
<path opacity="0.5" d="M99.6596 273.81L89.321 267.991L99.6596 262.173L109.998 267.991L99.6596 273.81Z" fill="#173D7A"/>
<path d="M109.998 260.603L99.6596 266.422V254.785L109.998 248.967V260.603Z" fill="#D3008D"/>
<path d="M99.6596 254.785L89.3216 248.967L99.6596 243.148L109.998 248.967L99.6596 254.785Z" fill="#FF2C9C"/>
<path d="M99.6596 266.422L89.3216 260.603V248.967L99.6596 254.785V266.422Z" fill="#FF2C9C"/>
<path d="M95.9366 260.135L93.0446 258.508V255.253L95.9366 256.881V260.135Z" fill="white"/>
</svg>
